<svg xmlns="http://www.w3.org/2000/svg" xmlns:xlink="http://www.w3.org/1999/xlink" width="60px" height="60px" viewBox="0 0 60 60"><title>App Store</title><g id="App-Store" stroke="none" stroke-width="1" fill="none" fill-rule="evenodd"><circle id="Oval" stroke="#A6A6A6" fill="#000000" fill-rule="nonzero" cx="30" cy="30" r="29.5"></circle><path d="M38.0454067,28.9539321 C38.0750156,26.6167626 39.2798359,24.4579289 41.2377569,23.233782 C39.9969818,21.4316477 37.9932684,20.3300189 35.8310707,20.2612206 C33.5562625,20.0183932 31.350935,21.6455402 30.1917343,21.6455402 C29.0101003,21.6455402 27.2253287,20.2853297 25.3034244,20.3255438 C22.7746993,20.4086286 20.4743907,21.8353212 19.2441146,24.0836363 C16.6241918,28.6966393 18.5784185,35.4762004 21.0880851,39.2050038 C22.3437244,41.0308928 23.8112063,43.0704578 25.7313767,42.9981304 C27.6103788,42.9188733 28.3121497,41.7796127 30.5802659,41.7796127 C32.8273306,41.7796127 33.4857386,42.9981304 35.4448692,42.9521439 C37.461126,42.9188595 38.7314634,41.1181404 39.943049,39.2749616 C40.8452238,37.973949 41.5394459,36.5360467 42,35.0145171 C39.6052992,33.9844796 38.0482017,31.5981605 38.0454067,28.9539321 L38.0454067,28.9539321 Z M34.3449622,17.808907 C35.4443091,16.466774 35.9859157,14.7416895 35.8547638,13 C34.1752061,13.1794003 32.6237653,13.9957487 31.5095663,15.2863875 C30.409346,16.5597763 29.851977,18.2257096 29.960222,19.9172588 C31.6623005,19.9350813 33.2783882,19.1580042 34.3449622,17.808907 L34.3449622,17.808907 Z" id="Icon" fill="#FFFFFF" fill-rule="nonzero"></path></g></svg>