<svg xmlns="http://www.w3.org/2000/svg" viewBox="0 0 883.83 678.63"><defs><style>.cls-1,.cls-12,.cls-3,.cls-4,.cls-7,.cls-9{fill:none;}.cls-1,.cls-13,.cls-5,.cls-7,.cls-9{stroke:#35c4ba;}.cls-1,.cls-12,.cls-13,.cls-2,.cls-3,.cls-4,.cls-5,.cls-6,.cls-7,.cls-9{stroke-linecap:round;stroke-linejoin:round;}.cls-2{fill:#616670;}.cls-2,.cls-3{stroke:#616670;}.cls-4,.cls-6{stroke:#7e88c7;}.cls-10,.cls-11,.cls-5{fill:#35c4ba;}.cls-6,.cls-8{fill:#7e88c7;}.cls-7,.cls-8{opacity:0.3;}.cls-13,.cls-9{stroke-width:1.2px;}.cls-10,.cls-9{opacity:0.2;}.cls-12{stroke:#fff;}.cls-13{fill:#fff;}</style></defs><g id="Layer_2" data-name="Layer 2"><g id="Layer_1-2" data-name="Layer 1"><path class="cls-1" d="M649.36,185.73s11-3.5,15.84-3.84c6.75-.48,23.77-1.15,30,13.11s3.1,20.39,3.1,20.39"></path><path class="cls-2" d="M337.29,495.5a80,80,0,0,0,13.12-30.21l-17-.59s-1,20.2-6.39,30.64Z"></path><path class="cls-3" d="M311.58,319.54V297.87a3.79,3.79,0,0,1,3.79-3.79h24.84a3.79,3.79,0,0,1,3.79,3.79v44.38a3.79,3.79,0,0,1-3.79,3.79H329.58"></path><path class="cls-1" d="M235.91,352.55l2,32.07a9.43,9.43,0,0,0,14.88,5.73L304,352.29a10.85,10.85,0,0,1,4.74-2l16.49-2.62a11.91,11.91,0,0,0,6.61-3.41l4-4.12"></path><path class="cls-1" d="M309,321.61a36.56,36.56,0,0,1,13.14-7.3,3.11,3.11,0,0,1,3.65,1.64h0a3.11,3.11,0,0,1-1.16,4c-2.89,1.77-7.59,5.3-10,10.64l20-7.6a2.22,2.22,0,0,1,2.9,1.41h0a2.24,2.24,0,0,1-.12,1.61l-.69,1.43a1.69,1.69,0,0,0-.11,1.19l.58,2.06a4.34,4.34,0,0,1-1,4.11,24.36,24.36,0,0,1-9.63,6.34"></path><path class="cls-4" d="M248.7,294.87l-15.44,59.46s2.25-5.61,34.7-3.91"></path><path class="cls-4" d="M250.75,288.87c-.38.88-.72,1.76-1,2.66"></path><path class="cls-4" d="M302.37,252.85l-30,13.8a43,43,0,0,0-19.73,18.4"></path><path class="cls-4" d="M235.91,352.55s-.39.33-2.65,1.78"></path><line class="cls-4" x1="273.67" y1="303.53" x2="271.22" y2="348.77"></line><line class="cls-4" x1="272.44" y1="330.33" x2="280.46" y2="317.3"></line><path class="cls-4" d="M374,246.27a59.9,59.9,0,0,1,19.9,4.82l43.48,21.11s-22-1.68-30.87,26.18a176.44,176.44,0,0,0-30.3-5.51s-4.64,53-.38,76.62"></path><line class="cls-4" x1="365.28" y1="246.09" x2="368.89" y2="246.15"></line><line class="cls-4" x1="345.1" y1="245.91" x2="361.62" y2="246.07"></line><path class="cls-1" d="M437.36,272.2l17.08,9.48a10.21,10.21,0,0,1-.68,17.13l-32.08,22.81"></path><path class="cls-1" d="M243.18,363,296.33,336a8.53,8.53,0,0,0,4.42-5.59l1.05-4.27a9.19,9.19,0,0,1,2.58-4.48l4.58-4.4"></path><path class="cls-1" d="M435.68,278.66l-33.76,33.93a12.12,12.12,0,0,0-3.86,6.9l-3.69,20.64a12.13,12.13,0,0,0,1.42,8.15l.28.48"></path><line class="cls-1" x1="408.06" y1="294.08" x2="419.56" y2="294.85"></line><line class="cls-4" x1="276.45" y1="372.76" x2="274.69" y2="411.91"></line><line class="cls-4" x1="369.06" y1="292.87" x2="376.19" y2="292.87"></line><path class="cls-1" d="M421.93,317.08A44.26,44.26,0,0,1,417,337.22a6,6,0,0,0-.75,2.9v10a2.7,2.7,0,0,1-3.06,2.68h0a2.72,2.72,0,0,1-2.33-2.36,65.59,65.59,0,0,1-.4-13.33"></path><path class="cls-1" d="M403.5,337.47l1.18,13.69a2.79,2.79,0,0,0,2.78,2.54h0a2.79,2.79,0,0,0,2.78-2.78l.09-6.35"></path><path class="cls-1" d="M397.39,339.6l1.44,10.54a3.2,3.2,0,0,0,3.46,2.34l1.72-.2"></path><path class="cls-4" d="M330.77,399.24l-70.43,46.52s26.37,6.4,27.88,29c0,0,69.08-26.58,115.79-80.75"></path><line class="cls-4" x1="340.22" y1="392.99" x2="335.84" y2="395.89"></line><path class="cls-4" d="M333.43,464.7h35.2C395,442,407.78,411.86,413.35,392.6a22.68,22.68,0,0,0-12.89-27.18h0a22.66,22.66,0,0,0-21.41,1.93l-31.62,20.88"></path><line class="cls-1" x1="260.34" y1="445.76" x2="251.11" y2="452.48"></line><path class="cls-4" d="M288.22,474.73s-2.22,2.11-6.45-7.11l4.11-2.33A23.74,23.74,0,0,1,288.22,474.73Z"></path><path class="cls-4" d="M311.58,411.91s-13.33,4-36.89,0v24.37"></path><path class="cls-1" d="M261.93,473.43l2.71,3.95a3.14,3.14,0,0,1-1,4.49l-7.39,4.19a42.65,42.65,0,0,0-11.71,9.28A76.91,76.91,0,0,1,225.1,511s-19.48-6.52-25.85-33.71c0,0,21.07-6.13,28.33-13.21,5.1-5,9.68-9.72,11.95-12.1a2.5,2.5,0,0,1,3.29-.3l4.43,3.23"></path><path class="cls-1" d="M199.25,477.26a7.32,7.32,0,0,0-5.64,6.31s3,18.62,20.53,29.41c0,0,3.73,2.66,11-2"></path><path class="cls-1" d="M235.91,483.58l29.47-12.38a2.55,2.55,0,0,0,1.22-3.62c-2.35-4.08-7.59-11.93-14.55-14.87a3,3,0,0,0-3.37.69l-10.35,10.78"></path><line class="cls-1" x1="285.88" y1="465.29" x2="264.79" y2="477.26"></line><path class="cls-1" d="M219.19,474.94s8.22,3.6,14.07,18.27"></path><path class="cls-1" d="M224.33,471.53s8.22,3.6,14.07,18.27"></path><path class="cls-4" d="M322.15,505.21s11.17-20.78,12.34-54"></path><path class="cls-4" d="M350.41,597.41s1.46,1.37-4.7,3.25L344.59,597C344.09,597.07,347.3,597,350.41,597.41Z"></path><path class="cls-4" d="M309,608.25a10.34,10.34,0,0,0,8.41-1.25l-1.75-3.55S310.43,606.5,309,608.25Z"></path><line class="cls-1" x1="344.59" y1="597.01" x2="352.68" y2="623.31"></line><path class="cls-1" d="M346.68,625.89l9.06-2.83a2.57,2.57,0,0,1,2.76.84l7.53,9.31a18.81,18.81,0,0,0,5.3,4.51l3.36,1.92s-18.43-.23-27.14,35.86c0,0-3.66-7.13-7.57-14.94-3.15-6.32-9.92-14.29-12.39-17.11a2.2,2.2,0,0,1-.36-2.35l2.18-4.91"></path><line class="cls-1" x1="315.62" y1="603.45" x2="327.81" y2="628.26"></line><path class="cls-4" d="M281.77,526.7C287,551,295.42,580.46,309,608.25c0,0,13.27-13.88,41.45-10.84L312,472.22"></path><path class="cls-4" d="M280.38,520c.19.95.38,1.91.58,2.87"></path><path class="cls-4" d="M273.67,472.22A378.33,378.33,0,0,0,279.42,515"></path><path class="cls-1" d="M338.89,643l-12.24-9a2.1,2.1,0,0,1-.57-2.73c1.6-2.76,6-8.14,16.57-10.73a2.09,2.09,0,0,1,2.49,1.43c1.23,4.11,4.19,13.91,5.53,17.68"></path><path class="cls-1" d="M341.73,649.22S348,639,355.54,637.86"></path><path class="cls-1" d="M347.55,675.5l5.13,2.63s6-32.08,25.89-30.27c0,0,.26-4-3.88-8.22"></path><path class="cls-1" d="M378.57,647.86s1.77,19.67-25.89,30.27"></path><path class="cls-1" d="M343.66,255.08a23.09,23.09,0,0,1-4.82-5.28"></path><path class="cls-4" d="M301.24,256.42a5.2,5.2,0,0,0,1.07,6.68c3.66,3,11.36,6.66,27.07,5.89,26.37-1.28,16.36-12.42,16.36-12.42"></path><path class="cls-1" d="M305.92,217.2c-2.23-5.1-6.22-7.81-10.84-5.26s-1.46,10.57,1.25,16.63a5.58,5.58,0,0,0,8.11,3l-.56,14.52a22.59,22.59,0,0,1-1.68,8.46"></path><path class="cls-1" d="M298.7,217.43s4.61,2.39,5,7.37c0,0-2.54-1.71-4.55-1.41"></path><path class="cls-1" d="M349.21,201s5,41.15-7.64,47.63c-12.91,6.62-23.37-1.24-29-4.39"></path><path class="cls-1" d="M349.65,212s-5.54-2.23-9.34.47a5.22,5.22,0,0,0-2.13,4.48l.62,15.33a1.1,1.1,0,0,1-1,1.14l-3.9.52"></path><path class="cls-1" d="M341.8,222.55s3.44-4.12,6.6,0"></path><path class="cls-1" d="M324.8,222.55s3.45-4.12,6.6,0"></path><path class="cls-1" d="M320.14,214.72s7.28-3.81,13.8,0"></path><path class="cls-1" d="M321.5,236s2.3,8,13.61,7.12"></path><path class="cls-1" d="M296.91,210.08s-4.73-11.87-2.33-16,5-4.23,5-4.23S309.07,173,327,173.18s5,5.86,5,5.86,14.11-3.16,19.3-2.48-.4,5.41-.4,5.41,14.39,1.95,13.94,7.14-6.72,10.94-6.72,10.94"></path><path class="cls-1" d="M305.35,196.18s12.71,5.86,20.35,6,0-3.92,0-3.92,10.14,4.62,15.42,3.92,0-4.93,0-4.93,6.91,4.35,11.67,2.52"></path><path class="cls-1" d="M307.17,197.4s3.29,14.39-1.07,20"></path><path class="cls-5" d="M342.38,254s-22.76,7.18-29.77-9.76c0,0,14.43,10.79,26.23,5.59Z"></path><polygon class="cls-5" points="435.68 278.66 414.25 294.08 419.56 294.85 435.68 278.66"></polygon><polygon class="cls-5" points="264.24 352.3 242.52 359.2 243.18 362.98 264.24 352.3"></polygon><path class="cls-6" d="M399.33,399.24S375,439.94,333.94,460l.55-8.8S370.54,429.81,399.33,399.24Z"></path><path class="cls-6" d="M333.94,460l-40.57,19.81a1.65,1.65,0,0,1-2.33-1.06l-1.25-4.62s34.55-16.05,47.5-24.65Z"></path><line class="cls-3" x1="198.51" y1="464.7" x2="227.58" y2="464.7"></line><line class="cls-3" x1="190.5" y1="464.7" x2="193.61" y2="464.7"></line><path class="cls-3" d="M197.85,495.34h-33a5.1,5.1,0,0,1-4.84-6.7l5.11-15.36A12.53,12.53,0,0,1,177,464.7h9.15"></path><path class="cls-3" d="M499.3,495.34H611.42a5.09,5.09,0,0,0,4.83-6.7l-5.1-15.36a12.55,12.55,0,0,0-11.9-8.58H333.94"></path><line class="cls-3" x1="414.25" y1="557.9" x2="338.24" y2="557.9"></line><line class="cls-3" x1="421.33" y1="557.9" x2="417.67" y2="557.9"></line><polyline class="cls-3" points="335.58 549.03 563.82 549.03 563.82 557.9 428.52 557.9"></polyline><polyline class="cls-3" points="289.69 557.9 203.38 557.9 203.38 549.03 287.18 549.03"></polyline><line class="cls-3" x1="486.79" y1="495.34" x2="492.99" y2="495.34"></line><line class="cls-3" x1="327.04" y1="495.34" x2="480" y2="495.34"></line><rect class="cls-3" x="563.82" y="495.34" width="8.27" height="125.13"></rect><polyline class="cls-3" points="203.38 519.75 203.38 522.88 203.38 620.47 195.11 620.47 195.11 495.34"></polyline><line class="cls-3" x1="203.38" y1="510.97" x2="203.38" y2="513.73"></line><path class="cls-3" d="M258,443.32h-78.3a3.32,3.32,0,0,1-3.32-3.32v-7.07a3.33,3.33,0,0,1,3.32-3.33h94.95"></path><path class="cls-3" d="M258,413.93h-78.3a3.32,3.32,0,0,1-3.32-3.32v-7.07a3.32,3.32,0,0,1,3.32-3.32h94.95"></path><path class="cls-3" d="M237.93,384.62l-58.19-.08a3.32,3.32,0,0,1-3.32-3.32v-7.07a3.32,3.32,0,0,1,3.32-3.32h57.32"></path><path class="cls-3" d="M225.56,355.15H179.74a3.32,3.32,0,0,1-3.32-3.32v-7.07a3.32,3.32,0,0,1,3.32-3.32l56.95-.29"></path><path class="cls-3" d="M240.68,325.77H179.74c-1.83,0-3.32-2.41-3.32-5.38V309c0-3,1.49-5.37,3.32-5.37h66.7"></path><path class="cls-3" d="M596.94,384.54a3.31,3.31,0,0,0,3.32-3.32v-7.07a3.31,3.31,0,0,0-3.32-3.32H590"></path><path class="cls-3" d="M578.18,355.15h18.76a3.31,3.31,0,0,0,3.32-3.32v-7.07a3.32,3.32,0,0,0-3.32-3.32l-180.71-.29"></path><path class="cls-3" d="M421.68,325.77H596.94c1.84,0,3.32-2.41,3.32-5.38V309c0-3-1.48-5.37-3.32-5.37H450.59"></path><line class="cls-3" x1="261.54" y1="413.93" x2="265.19" y2="413.93"></line><polyline class="cls-3" points="220.45 443.32 220.45 464.7 208.39 464.7 208.39 443.98"></polyline><polyline class="cls-3" points="220.45 413.93 220.45 421.21 220.45 429.6"></polyline><polyline class="cls-3" points="220.45 384.6 220.45 393.43 220.45 400.21"></polyline><polyline class="cls-3" points="220.45 355.15 220.45 363.6 220.45 370.83"></polyline><polyline class="cls-3" points="208.39 341.15 208.39 325.76 220.45 325.76 220.45 341.15"></polyline><polyline class="cls-3" points="553.9 341.15 553.9 325.76 565.96 325.76 565.96 341.15"></polyline><polyline class="cls-3" points="553.9 370.67 553.9 355.28 565.96 355.28 565.96 370.67"></polyline><polyline class="cls-3" points="553.9 400.19 553.9 384.8 565.96 384.8 565.96 400.19"></polyline><polyline class="cls-3" points="553.9 429.7 553.9 413.98 565.96 413.98 565.96 429.7"></polyline><polyline class="cls-3" points="553.9 464.56 553.9 443.83 565.96 443.83 565.96 464.56"></polyline><polyline class="cls-3" points="208.39 370.83 208.39 363.6 208.39 355.15"></polyline><polyline class="cls-3" points="208.39 400.21 208.39 393.19 208.39 384.62"></polyline><polyline class="cls-3" points="208.39 429.6 208.39 421.81 208.39 413.93"></polyline><line class="cls-3" x1="578.18" y1="355.15" x2="419.56" y2="355.15"></line><line class="cls-3" x1="590.01" y1="370.83" x2="419.56" y2="370.83"></line><line class="cls-3" x1="596.94" y1="384.54" x2="414.25" y2="384.54"></line><path class="cls-3" d="M596.94,414a3.32,3.32,0,0,0,3.32-3.32v-7.08a3.32,3.32,0,0,0-3.32-3.32H590"></path><line class="cls-3" x1="590.01" y1="400.26" x2="419.56" y2="400.26"></line><line class="cls-3" x1="596.94" y1="413.98" x2="414.25" y2="413.98"></line><path class="cls-3" d="M595.32,443.46a3.33,3.33,0,0,0,3.33-3.32v-7.08a3.33,3.33,0,0,0-3.33-3.32h-6.93"></path><line class="cls-3" x1="588.39" y1="429.74" x2="406.44" y2="429.74"></line><line class="cls-3" x1="595.32" y1="443.46" x2="389.84" y2="443.46"></line><rect class="cls-2" x="208.39" y="325.77" width="12.06" height="4.57"></rect><rect class="cls-2" x="208.39" y="355.23" width="12.06" height="4.57"></rect><rect class="cls-2" x="208.39" y="384.69" width="12.06" height="4.57"></rect><rect class="cls-2" x="208.39" y="414.15" width="12.06" height="4.57"></rect><line class="cls-1" x1="255.72" y1="620.47" x2="69.92" y2="620.47"></line><line class="cls-1" x1="581.87" y1="620.47" x2="484.51" y2="620.47"></line><polyline class="cls-1" points="612.8 637.86 427.01 637.86 431.39 628.26 425.42 631.73 425.42 622.95 419.5 633.44 414.25 630.4 417.67 637.86 397.45 637.86"></polyline><line class="cls-3" x1="374.85" y1="303.53" x2="408.06" y2="303.53"></line><path class="cls-7" d="M.5,471.82c10.4-8.47,28.82-2.36,32.09,10.64a11,11,0,0,1,13.81-2.14,11,11,0,0,1,4,13.39c6.23-.25,11.41,4.2,16.87,7.22,7.74,4.28,5.45,15.71,7.74,17.36,6.58,4.74,13.44-1.73,19.4,5.13,3.93,4.52,2.3,10,2.33,16a2.93,2.93,0,0,0,4.3,2.58,31.65,31.65,0,0,1,11.77-3.9c5.94-.52,12.6,2.24,14.68,7.82,2.73,7.35-2.16,18.33,4.83,21.88,2.41,1.23,5.55.86,7.61,2.61,4.05,3.43.08,10.9,3.39,15.06,2.07,2.6,6,2.64,8.76,4.55,4.15,2.89,4.33,9,7.55,12.93,2.78,3.37,7.34,4.54,11.12,6.72s7.11,6.86,5,10.69"></path><path class="cls-7" d="M168.05,453q5.2,1.16,10.73,2.86"></path><path class="cls-7" d="M67.28,500.93s21.5-57.35,87.26-50.24"></path><path class="cls-1" d="M594,620.47h32.19a1,1,0,0,0,.94-1.1l-1.9-11.63a.14.14,0,0,1,.23-.13l8.62,7.78a.13.13,0,0,0,.22-.07l3.55-15.88a.14.14,0,0,1,.27,0l3,15.13a.14.14,0,0,0,.2.09l9.08-4.7a.13.13,0,0,1,.18.18l-5.15,10.33H826.58"></path><path class="cls-3" d="M662.58,544c13-13.69,36.92-19.08,65.86-2.89,51.94,29,84.62,16.43,98.14,30.19,18.2,18.53,14,38,0,49.22"></path><path class="cls-3" d="M655.43,554.46a37.68,37.68,0,0,1,2.48-4.54"></path><path class="cls-3" d="M680.17,620.47s-29.31-23.33-28.27-51.37a38.27,38.27,0,0,1,1.61-9.59"></path><line class="cls-1" x1="826.58" y1="620.47" x2="846.14" y2="620.47"></line><line class="cls-1" x1="853.27" y1="620.47" x2="866.1" y2="620.47"></line><path class="cls-8" d="M821.32,567.54s-38.54.17-66.53,23.54-48.93,18.12-53.56,29.39H826.58S857,595.22,821.32,567.54Z"></path><path class="cls-3" d="M707.53,532.7s-6.63-12.74,11-20,68.18-10.91,90.88,1c15,7.89,35.13,36.22,3.58,51.12"></path><path class="cls-8" d="M747.78,506.78s24.14,14.13,31,34.89,19.66,21,19.66,21-32-2.79-52.64-13.11-19.85-13.75-33.3-14.85S709.39,517.34,714,515,731.88,507.59,747.78,506.78Z"></path><path class="cls-3" d="M641.72,188.25,662.3,104l48.6,30.73a52.92,52.92,0,0,1,24.64,44.73v65.65h0a24,24,0,0,1-28.07,23.44L649.36,256.1l-34.28-8.8"></path><path class="cls-3" d="M715.62,326.18l1.24,21.43S706.59,364.56,645.32,364a25.45,25.45,0,0,1-17.55-7.32l-6.9-6.79,1.56-100"></path><line class="cls-3" x1="712.31" y1="269.34" x2="715.26" y2="320.13"></line><path class="cls-1" d="M602.34,201.22s-11.28-7-24.5-7.29a30.35,30.35,0,0,0-25.3,12.69,23,23,0,0,0-4.47,12.47"></path><line class="cls-3" x1="708.22" y1="354.12" x2="699.56" y2="531.09"></line><polygon class="cls-5" points="649.36 185.73 662.92 226.13 657.7 227.67 649.36 185.73"></polygon><path class="cls-3" d="M508.39,214.37l5,33.09a30,30,0,0,0,40.42,23.47l104.46-40.3-8.93-44.9L538.81,222.15"></path><path class="cls-3" d="M627.43,193l-54.69-92.42L520.82,134.2a41.52,41.52,0,0,0-18,43.82l2.86,18.82"></path><line class="cls-3" x1="657.7" y1="227.67" x2="710.87" y2="211.94"></line><polyline class="cls-3" points="554.97 112.06 575.2 142.09 582.13 139.82 580.09 154.71 624.5 193.92"></polyline><polyline class="cls-3" points="679.56 114.95 671.47 142.09 662.73 140.15 666.93 152.99 646.28 186.75"></polyline><path class="cls-2" d="M615.08,247.3l-50.77,28.63a38.69,38.69,0,0,1-29,3.69l-12.84-3.41.63-10.87s12,11.44,28.94,6.21Z"></path><path class="cls-9" d="M97.59,181.76H267.3a.51.51,0,0,0,.13-1l-21.71-5.6A15,15,0,0,1,234.81,164c-5.05-22-25.68-72.52-103,3.66,0,0-4.65-13.2-20.54-5,0,0-15.55-43-48.46,8.66a9,9,0,0,1-5.65,3.93l-25.22,5.51a.52.52,0,0,0,.11,1H73.66"></path><path class="cls-9" d="M730.5,289.89c12.21-1.52,28,6.47,48.73,33.38,0,0,13.8-20.36,31.31,2.14,0,0,29.94-46.57,44.18,10.06.66,2.64,3,4,5.15,4.57l23,6.4c.55.15.46,1.18-.1,1.18H728.54"></path><path class="cls-1" d="M596.5,48.15c-3.1-7.09-8.64-10.85-15.06-7.31s-2,14.69,1.75,23.1,11.25,4.18,11.25,4.18L594,79.68a15.67,15.67,0,0,1-2.6,8.07"></path><line class="cls-3" x1="648.85" y1="96.61" x2="642.73" y2="93.24"></line><line class="cls-3" x1="662.3" y1="104.04" x2="651.74" y2="98.21"></line><path class="cls-1" d="M587.34,47.92s6.41,3.31,6.92,10.23"></path><path class="cls-1" d="M605.8,85.67C613.56,90,628.08,101,646,91.76c17.56-9,10.6-66.15,10.6-66.15S654.59.53,619.2.5c-31.86,0-29.47,39.77-29.47,39.77"></path><line class="cls-3" x1="582.77" y1="94.55" x2="569.54" y2="102.62"></line><polyline class="cls-3" points="648.85 96.61 623.84 126.56 588.32 91.17"></polyline><polygon class="cls-2" points="642.73 184.09 627.59 132.83 620.21 132.83 614.65 171.36 627.43 192.96 641.72 188.25 642.73 184.09"></polygon><polygon class="cls-2" points="628.69 120.74 618.14 120.74 614.65 126.79 620.21 132.83 627.59 132.83 632.94 126.56 628.69 120.74"></polygon><path class="cls-3" d="M614.65,120.74s-10.43-3.09-13.47,7.55L582.76,94.53a2.64,2.64,0,0,1,.88-3.49,17.07,17.07,0,0,1,7.06-2.32"></path><path class="cls-3" d="M631.38,120.74s3.68-.91,7.47,5.81c0,0,17.91-27.67,11.39-32a6.84,6.84,0,0,0-6.1-.54"></path><path class="cls-5" d="M605.8,85.67s7.76,8.32,16.55,13a14.72,14.72,0,0,0,19.18-5h0S628.29,101.13,605.8,85.67Z"></path><path class="cls-3" d="M590.48,55.6V70.1a17.73,17.73,0,0,1-5.09,12.57c-2.24,2.23-4.88,3.66-7.21,1.71-4.89-4.1,4.12-7.93,3.77-2.37s-9.77,15.83-12.15,11c-2-4.14,6.72-7,6.36,1.53l-.45,4.3"></path><rect class="cls-2" x="588.11" y="52.23" width="5.29" height="6.74" rx="2.64" transform="translate(1181.5 111.2) rotate(180)"></rect><path class="cls-10" d="M655.59,21.23s-3-4.57-6.74-1.08-19.76,8.44-30.27,1.08-15.39,1.48-11.44,5.67,5.92,15.83-1.34,20S595,45.36,595,45.36s-3.67-5.27-5.35-6.11S590.41,5,611.76,1.32c0,0,25.6-5.39,39.33,11.63C651.09,13,655.76,18.71,655.59,21.23Z"></path><path class="cls-1" d="M644.14,43.28,645.49,60a3.4,3.4,0,0,1-3.38,3.67h-5.74"></path><path class="cls-11" d="M589.73,39.75l36.32-.58h0c.54,0,1.08-.06,1.6-.06h30.12v0h0v0h9.88a1.22,1.22,0,0,1,1.2,1.45c-.47,2.42-1.58,7.22-3.32,9.18h0a10.9,10.9,0,0,1-9.58,5.09c-7.78,0-10.68-6.15-11.74-10.08a3.38,3.38,0,0,1-.06-1.48,5.52,5.52,0,0,0-3.94-.23,1.34,1.34,0,0,0-1,1.13l0,.32a6,6,0,0,1-.22,1.1c-1.14,3.89-4,9.24-11.54,9.24-7.78,0-10.82-6.12-11.74-10.08a9.61,9.61,0,0,1-.31-2.15H593Z"></path><line class="cls-12" x1="658.82" y1="51.52" x2="647.45" y2="42.15"></line><line class="cls-12" x1="662.92" y1="47.55" x2="656.36" y2="42.15"></line><line class="cls-12" x1="634.66" y1="47.55" x2="628.1" y2="42.15"></line><line class="cls-12" x1="631.44" y1="51.52" x2="620.07" y2="42.15"></line><path class="cls-1" d="M650.49,72.85H629.88A36.9,36.9,0,0,1,615.56,70l-.91-.39"></path><line class="cls-1" x1="640.45" y1="63.62" x2="640.45" y2="72.85"></line><rect class="cls-2" x="553.9" y="443.83" width="12.06" height="6.33"></rect><rect class="cls-2" x="553.9" y="413.98" width="12.06" height="6.33"></rect><rect class="cls-2" x="553.9" y="385.29" width="12.06" height="6.33"></rect><rect class="cls-2" x="553.9" y="355.28" width="12.06" height="6.33"></rect><rect class="cls-2" x="553.9" y="326.02" width="12.06" height="6.33"></rect><line class="cls-3" x1="523.11" y1="265.34" x2="519.1" y2="303.53"></line><path class="cls-3" d="M620.87,349.87s-6.59,11.61-15.64,11.74"></path><polygon class="cls-2" points="713.09 282.66 636.58 252.82 712.31 269.34 713.09 282.66"></polygon><circle class="cls-13" cx="595.24" cy="172.46" r="14.29"></circle><path class="cls-11" d="M596.89,173.17a.18.18,0,0,1-.19-.28c.6-.89,1.94-3.14.65-4-1.61-1.13-3.27.84-6.19.73s-3.41-1.93-3.37-3,.52-2.53,2.92-2.74h8.86s3.55,0,2.81,4.18C602.38,168,600.88,172.3,596.89,173.17Z"></path><path class="cls-11" d="M593.59,171.75a.19.19,0,0,1,.19.29c-.6.88-1.94,3.13-.65,4,1.62,1.12,3.27-.85,6.19-.74s3.41,1.93,3.38,3-.53,2.54-2.92,2.75h-8.87s-3.55,0-2.81-4.19C588.1,176.91,589.6,172.63,593.59,171.75Z"></path><line class="cls-3" x1="687.14" y1="152.99" x2="684.28" y2="181.7"></line><line class="cls-3" x1="557.44" y1="168.5" x2="563.16" y2="194.82"></line><line class="cls-3" x1="506.39" y1="201.82" x2="506.91" y2="206.51"></line></g></g></svg>