<svg xmlns="http://www.w3.org/2000/svg" xmlns:xlink="http://www.w3.org/1999/xlink" width="256px" height="208px" viewBox="0 0 256 208"><title>ZenGo-cashback</title><g id="Page-1" stroke="none" stroke-width="1" fill="none" fill-rule="evenodd"><g id="claim-cash-back" transform="translate(-55.000000, -28.000000)"><g id="ZenGo-cashback" transform="translate(55.000000, 28.000000)"><polygon id="Path" stroke="#7E88C7" stroke-width="1.2" stroke-linecap="round" stroke-linejoin="round" points="160.45 207.22 72.47 206.01 44.69 132.36 132.71 132.36"></polygon><polygon id="Path" stroke="#7E88C7" stroke-width="1.2" stroke-linecap="round" stroke-linejoin="round" points="132.71 132.36 176.95 78.59 202.15 150.97 160.45 207.22"></polygon><line x1="54.51" y1="121.35" x2="44.69" y2="132.36" id="Path" stroke="#7E88C7" stroke-width="1.2" stroke-linecap="round" stroke-linejoin="round"></line><line x1="176.95" y1="78.59" x2="132.29" y2="78.59" id="Path" stroke="#7E88C7" stroke-width="1.2" stroke-linecap="round" stroke-linejoin="round"></line><polygon id="Path" fill="#7E88C7" fill-rule="nonzero" opacity="0.3" points="150.54 180.47 144.13 163.16 108.12 163.16 98.07 132.36 75.85 132.78 86.82 163.16 56.11 163.16 62.82 180.96 93.18 180.79 102.57 206.81 122.22 206.4 113.83 180.68"></polygon><polygon id="Path" fill="#7E88C7" fill-rule="nonzero" opacity="0.3" points="194.27 128.31 188.75 111.45 172.16 130.86 159.73 99.89 148.82 113.1 161.3 143.44 144.13 163.16 150.54 180.47 168.04 159.84 177.99 184.03 188.04 170.47 178.68 147.14"></polygon><path d="M97.73,31.46 C111.54,33.72 115.6,46.75 106.52,62.46 C97.44,78.17 78.45,91.14 62.07,93.46" id="Path" stroke="#35C4BA" stroke-width="1.2" stroke-linecap="round" stroke-linejoin="round"></path><path d="M52.38,93.46 C38.74,91.11 34.75,78.14 43.79,62.46 C53,46.46 72.52,33.34 89.07,31.35" id="Path" stroke="#35C4BA" stroke-width="1.2" stroke-linecap="round" stroke-linejoin="round"></path><path d="M152.66,47.84 C151.190006,54.0220407 150.249933,60.3181894 149.85,66.66 C149.35,74.59 149.85,83.05 154.23,89.66" id="Path" stroke="#7E88C7" stroke-linecap="round" stroke-linejoin="round"></path><path d="M20.9,113.919935 C20.9,113.919935 54.26,113.74 69.46,132.36" id="Path" stroke="#7E88C7" stroke-linecap="round" stroke-linejoin="round"></path><path d="M132.71,91.59 C132.71,91.59 131.56,105.09 139.04,124.68" id="Path" stroke="#7E88C7" stroke-linecap="round" stroke-linejoin="round"></path><line x1="89.07" y1="99.88" x2="106.26" y2="126.71" id="Path" stroke="#7E88C7" stroke-linecap="round" stroke-linejoin="round"></line><line x1="106.48" y1="98.23" x2="122.21" y2="124.68" id="Path" stroke="#7E88C7" stroke-linecap="round" stroke-linejoin="round"></line><circle id="Oval" stroke="#EEC836" stroke-width="1.2" stroke-linecap="round" stroke-linejoin="round" cx="13" cy="113.3" r="3.3"></circle><circle id="Oval" stroke="#EEC836" stroke-width="1.2" stroke-linecap="round" stroke-linejoin="round" cx="84.54" cy="121.35" r="3.3"></circle><circle id="Oval" stroke="#EEC836" stroke-width="1.2" stroke-linecap="round" stroke-linejoin="round" cx="132.29" cy="28.08" r="3.3"></circle><circle id="Oval" stroke="#EEC836" stroke-width="1.2" stroke-linecap="round" stroke-linejoin="round" cx="154.62" cy="41.46" r="3.3"></circle><circle id="Oval" stroke="#EEC836" stroke-width="1.2" stroke-linecap="round" stroke-linejoin="round" cx="132.71" cy="86.36" r="3.3"></circle><polyline id="Path" stroke="#7E88C7" stroke-width="1.2" stroke-linecap="round" stroke-linejoin="round" points="185.97 104.48 226.57 104.48 253.69 41.46 176.95 41.46 157.14 78.59"></polyline><polyline id="Path" stroke="#7E88C7" stroke-width="1.2" stroke-linecap="round" stroke-linejoin="round" points="226.57 104.48 229 113.3 189.24 113.3"></polyline><polyline id="Path" stroke="#7E88C7" stroke-width="1.2" stroke-linecap="round" stroke-linejoin="round" points="253.69 41.46 255.25 53.17 229 113.3"></polyline><polyline id="Path" stroke="#7E88C7" stroke-width="1.2" stroke-linecap="round" stroke-linejoin="round" points="176.95 41.46 176.95 50.76 162.99 78.59"></polyline><line x1="249.69" y1="50.76" x2="176.95" y2="50.76" id="Path" stroke="#7E88C7" stroke-width="1.2" stroke-linecap="round" stroke-linejoin="round"></line><polygon id="Path" fill="#7E88C7" fill-rule="nonzero" opacity="0.3" points="176.95 50.76 249.69 50.76 226.57 104.48 185.97 104.48 176.95 78.59 162.99 78.59"></polygon><polygon id="Path" fill="#7E88C7" fill-rule="nonzero" points="191.54 104.48 194.27 113.3 189.24 113.3 185.97 104.48"></polygon><line x1="236.76" y1="141.54" x2="211.2" y2="132.08" id="Path" stroke="#35C4BA" stroke-width="1.2" stroke-linecap="round" stroke-linejoin="round"></line><line x1="217.3" y1="154.92" x2="207.96" y2="143.97" id="Path" stroke="#35C4BA" stroke-width="1.2" stroke-linecap="round" stroke-linejoin="round"></line><line x1="225.27" y1="122.17" x2="235.06" y2="121.35" id="Path" stroke="#35C4BA" stroke-width="1.2" stroke-linecap="round" stroke-linejoin="round"></line><line x1="0.75" y1="45.68" x2="26.16" y2="55.51" id="Path" stroke="#EEC836" stroke-width="1.2" stroke-linecap="round" stroke-linejoin="round"></line><line x1="20.39" y1="32.58" x2="29.57" y2="43.66" id="Path" stroke="#EEC836" stroke-width="1.2" stroke-linecap="round" stroke-linejoin="round"></line><line x1="11.95" y1="65.21" x2="2.16" y2="65.9" id="Path" stroke="#EEC836" stroke-width="1.2" stroke-linecap="round" stroke-linejoin="round"></line><g id="Group-3" transform="translate(80.000000, 68.500000) rotate(-315.000000) translate(-80.000000, -68.500000) translate(39.000000, 14.000000)" stroke="#EEC836" stroke-linecap="round" stroke-linejoin="round" stroke-width="1.2"><path d="M46.3359786,108.867366 C63.351132,110.277193 79.1347123,87.4444774 81.5816533,57.8705204 C84.0285943,28.2965633 72.1990115,3.17895591 55.1838584,1.76912892 L35.7379688,0.148638122 L26.890089,107.246875 L46.3359786,108.867366 Z" id="Path" fill="#FFFFFF"></path><path d="M53.3851136,87.8171903 C46.6762817,100.392199 37.0181566,108.105736 26.906294,107.26308 C9.89114056,105.853253 -1.92223736,80.7518502 0.508498837,51.1778934 C2.93923503,21.6039363 18.7390203,-1.22877906 35.7541737,0.164843029 C52.7693271,1.55846512 64.59891,26.6922774 62.1519688,56.2662345 C61.6858206,62.3566226 60.5998772,68.3836082 58.9109872,74.2536823" id="Path" fill="#FFFFFF" fill-rule="nonzero"></path><path d="M57.0960375,79.5040729 C56.5288658,81.0435388 55.9130793,82.5181854 55.264883,83.960422" id="Path" fill="#FFFFFF" fill-rule="nonzero"></path><path d="M10.6851811,74.7722395 L18.9172743,76.1496568 L17.91257,85.6943472 L22.0124118,86.1156751 L23.0009112,76.7006233 L26.4525566,77.1867705 L25.4640572,86.7962809 L29.6449234,87.2338138 L30.6334228,77.6891227 C30.6334228,77.6891227 42.7060792,79.5526872 44.6344633,67.3665965 C44.6344633,67.3665965 47.7944204,57.1088897 40.3725725,53.8354983 C42.978106,51.8906478 44.6711219,48.9615545 45.0557909,45.7330443 C45.0557909,45.7330443 46.2873639,37.0472136 40.7290805,34.3896087 C39.1861038,33.6214092 37.5528656,33.0497759 35.8676081,32.6880933 L37.1802057,22.5924357 L33.1289786,22.1711081 L31.8487909,31.6671842 L29.0939566,31.3917008 L30.0824559,21.8470099 L25.8691798,21.4094774 L24.9455001,30.3545866 L15.7735222,29.5281363 L15.2549651,36.1397387 L18.6093811,36.6420909 C19.6627001,36.7879351 20.3757161,38.1167375 20.2298718,39.6399989 L17.5236522,66.0702039 C17.4102179,67.2045474 16.6972019,68.0796124 15.9031614,68.0634075 L11.8519344,67.9337683 L10.6851811,74.7722395 Z" id="Path"></path><path d="M27.9434081,38.732524 L26.7280399,50.4000578 C26.7280399,50.4000578 36.4509848,52.2474173 37.1477958,45.5385854 C37.8446069,38.8297535 27.9434081,38.732524 27.9434081,38.732524 Z" id="Path"></path><path d="M26.1122534,56.3958737 L24.7510412,69.3598002 C24.7510412,69.3598002 35.8676081,71.4502334 36.6454437,64.0121805 C37.4232792,56.5741277 26.1122534,56.3958737 26.1122534,56.3958737 Z" id="Path"></path></g></g></g></g></svg>