<svg xmlns="http://www.w3.org/2000/svg" xmlns:xlink="http://www.w3.org/1999/xlink" width="800px" height="642px" viewBox="0 0 800 642"><title>fee</title><g id="fee" stroke="none" stroke-width="1" fill="none" fill-rule="evenodd"><g id="Group-6" transform="translate(171.000000, 276.500000) rotate(-329.000000) translate(-171.000000, -276.500000) translate(89.000000, 185.000000)" stroke="#35C4BA" stroke-linecap="round" stroke-linejoin="round" stroke-width="2"><path d="M128.675696,41.1220314 C126.435696,38.4820314 124.115696,35.8820314 121.715696,33.4020314" id="Path"></path><path d="M115.075696,26.9220314 C104.105078,16.2722984 90.985527,8.08962628 76.5956961,2.92203139 C39.2756961,-9.07796861 16.5956961,16.9620314 26.1556961,61.2420314 C35.7156961,105.522031 73.5956961,151.402031 111.075696,163.482031 C148.555696,175.562031 171.075696,149.442031 161.475696,105.162031 C156.885161,85.4200697 148.279922,66.8343871 136.195696,50.5620314" id="Path"></path><path d="M145.515696,162.162031 L126.395696,174.882031 C114.852853,182.592739 100.435823,184.652315 87.1956961,180.482031 L86.8356961,180.482031 C49.5556961,168.482031 11.6356961,122.682031 2.15569607,78.4020314 C-3.44430393,52.0820314 2.15569607,32.2020314 15.5956961,22.9220314 L42.2356961,4.40203139" id="Path"></path><g id="Group" transform="translate(54.000000, 37.000000)"><path d="M30.7296,6.864 C30.7296,6.864 17.952,-5.6496 11.8272,13.728 C8.39029497,25.7066867 10.460699,38.5935002 17.4768,48.8928 C17.4768,48.8928 30.8352,67.9008 40.4976,45.0384 C50.16,22.176 62.4096,38.2272 62.4096,38.2272 C71.4097481,49.1720856 74.3963711,63.867853 70.3824,77.4576 C63.3072,99.9504 51.5856,86.1696 51.5856,86.1696" id="Path"></path><line x1="1.76328285e-12" y1="-1.20053301e-12" x2="12.0384" y2="13.2" id="Path"></line><line x1="70.4352" y1="76.9296" x2="82.5264" y2="90.1296" id="Path"></line></g><line x1="28.2356961" y1="94.5220314" x2="11.7156961" y2="105.402031" id="Path"></line><line x1="28.3156961" y1="75.8420314" x2="6.55569607" y2="89.7620314" id="Path"></line></g><path d="M77,631.971638 L140.412071,631.971638 C140.959143,631.969582 141.478265,631.727378 141.834297,631.308077 C142.19033,630.888776 142.348046,630.333864 142.266389,629.787798 L138.529657,606.673125 C138.51799,606.560615 138.573673,606.451867 138.671345,606.396407 C138.769017,606.340946 138.889997,606.349381 138.979188,606.417871 L155.836629,621.874922 C155.889689,621.946338 155.972961,621.988368 156.061394,621.988368 C156.149828,621.988368 156.2331,621.946338 156.28616,621.874922 L163.253902,590.195057 C163.291799,590.078668 163.399446,590 163.520812,590 C163.642178,590 163.749825,590.078668 163.787721,590.195057 L169.772112,620.258313 C169.789818,620.342883 169.844762,620.414685 169.92135,620.453342 C169.997937,620.491998 170.087808,620.493287 170.165453,620.456844 L188.062435,611.097528 C188.1668,611.055358 188.286019,611.080046 188.365509,611.160287 C188.444998,611.240529 188.469454,611.360876 188.42768,611.466229 L178.28512,632 L266,632" id="Path" stroke="#616670" stroke-width="2" stroke-linecap="round" stroke-linejoin="round" fill-rule="nonzero"></path><path d="M22,86.8032598 C22,86.8032598 44.0312828,63.6999346 73.4063265,85.0649028 C73.4063265,85.0649028 108.915239,66.3074701 133.394443,106.485947 C133.394443,106.485947 161.531458,87.6163623 183,108" id="Path" stroke="#616670" stroke-width="2" opacity="0.05" stroke-linecap="round" stroke-linejoin="round"></path><line x1="414.5" y1="108" x2="414.5" y2="122" id="Path" stroke="#616670" stroke-width="2" stroke-linecap="round" stroke-linejoin="round"></line><line x1="414.5" y1="135" x2="414.5" y2="149" id="Path" stroke="#616670" stroke-width="2" stroke-linecap="round" stroke-linejoin="round"></line><line x1="436" y1="128.5" x2="422" y2="128.5" id="Path" stroke="#616670" stroke-width="2" stroke-linecap="round" stroke-linejoin="round"></line><line x1="408" y1="128.5" x2="394" y2="128.5" id="Path" stroke="#616670" stroke-width="2" stroke-linecap="round" stroke-linejoin="round"></line><path d="M212.623992,480.452395 C238.309372,453.344942 285.432057,442.671382 342.513804,474.805009 C444.945861,532.295399 509.426574,507.333953 536.068474,534.58259 C571.966113,571.2906 563.72316,609.862247 536.068474,632 L183,632" id="Path" stroke="#616670" stroke-width="2" stroke-linecap="round" stroke-linejoin="round"></path><path d="M198,502 C199.467542,498.896782 201.137708,495.890483 203,493" id="Path" stroke="#616670" stroke-width="2" stroke-linecap="round" stroke-linejoin="round"></path><path d="M247,632 C247,632 188.965301,586.055699 191.055115,530.90007 C191.239194,524.494794 192.264548,518.140932 194.105114,512" id="Path" stroke="#616670" stroke-width="2" stroke-linecap="round" stroke-linejoin="round"></path><line x1="536" y1="632.5" x2="575" y2="632.5" id="Path" stroke="#616670" stroke-width="2" stroke-linecap="round" stroke-linejoin="round"></line><line x1="589" y1="632.5" x2="614" y2="632.5" id="Path" stroke="#616670" stroke-width="2" stroke-linecap="round" stroke-linejoin="round"></line><path d="M525.783837,527 C525.783837,527 449.84651,527.311321 394.58101,573.698113 C339.315511,620.084906 298.112479,609.641509 289,632 L536.133814,632 C536.133814,632 596.180553,581.820755 525.783837,527 Z" id="Path" fill="#7E88C7" fill-rule="nonzero" opacity="0.3"></path><path d="M301.422223,458.56234 C301.422223,458.56234 288.279,433.462725 323.224178,419.21244 C358.169357,404.962155 458.040929,397.71053 502.914036,421.292363 C532.50039,436.835574 572.381329,492.656217 509.993326,522" id="Path" stroke="#616670" stroke-width="2" stroke-linecap="round" stroke-linejoin="round"></path><path d="M380.898158,407 C380.898158,407 428.636867,434.801581 442.143567,475.62025 C455.650266,516.438919 481,517 481,517 C481,517 417.780752,511.389186 376.950479,491.218312 C336.120207,471.047437 337.699278,464.17419 311.137043,462.014027 C284.574807,459.853864 305.018141,427.76001 314.097801,423.187197 C335.143386,413.660319 357.80638,408.168576 380.898158,407 Z" id="Path" fill="#7E88C7" fill-rule="nonzero" opacity="0.3"></path><line x1="635" y1="405.5" x2="619" y2="405.5" id="Path" stroke="#616670" stroke-width="2" stroke-linecap="round" stroke-linejoin="round"></line><path d="M601.14366,405.697096 L325.847936,405.697096 C317.416875,405.697096 308.967037,405.979022 300.498422,406.542875 L244.673158,410.320691 C203.085447,413.136436 161.333911,412.410213 119.86905,408.149857 L95.8996761,405.697096 C86.5662427,405.697096 79,398.123726 79,388.781502 L79,388.781502 C79,379.439277 86.5662427,371.865907 95.8996761,371.865907 L512.758353,361.519202 C579.948582,359.853221 647.178288,362.197368 714.089828,368.539174 L749.100324,371.865907 C758.433757,371.865907 766,379.439277 766,388.781502 L766,388.781502 C766,398.123726 758.433757,405.697096 749.100324,405.697096 L655.02546,405.697096" id="Path" stroke="#616670" stroke-width="2" stroke-linecap="round" stroke-linejoin="round"></path><path d="M96,406.439108 C96,406.439108 138.263874,391.332388 182.30283,393.152127 C226.341786,394.971866 326,406.439108 326,406.439108 C326,406.439108 237.922087,414.035795 196.390788,412.880406 C154.859488,411.725016 96,406.439108 96,406.439108 Z" id="Path" fill="#7E88C7" fill-rule="nonzero" opacity="0.3"></path><path d="M611,362 L611,362 C615.927717,369.611229 624.36191,374.138368 633.350344,373.996774 L750,372.059053 L611,362 Z" id="Path" fill="#7E88C7" fill-rule="nonzero" opacity="0.3"></path><path d="M334,273 C334,273 350.1707,251.323764 382.371485,262.38709 C382.371485,262.38709 412.57554,222.975752 451.132112,245.496516 C451.132112,245.496516 492.444735,216.501032 522.480052,266.159318 C522.480052,266.159318 549.506213,215.149786 592,232.659681" id="Path" stroke="#616670" stroke-width="2" opacity="0.05" stroke-linecap="round" stroke-linejoin="round"></path><path d="M701.241791,330.157938 C689.608155,351.972147 672.860216,365.353027 655.32546,363.89125 C625.819862,361.445585 605.334547,317.901502 609.549632,266.598757 C613.764718,215.296012 641.162773,175.687482 670.668371,178.105036 C700.173969,180.52259 720.687385,224.122895 716.444199,275.42564 C715.635862,285.990801 713.752752,296.445977 710.824085,306.628953" id="Path" stroke="#EEC836" stroke-width="2" stroke-linecap="round" stroke-linejoin="round" fill-rule="nonzero"></path><path d="M628,307.418021 L642.268026,309.803545 L640.526653,326.333826 L647.632579,327.063516 L649.345865,310.757755 L655.328325,311.599705 L653.615039,328.242245 L660.861398,329 L662.574685,312.469719 C662.574685,312.469719 683.49925,315.697194 686.841563,294.592319 C686.841563,294.592319 692.318463,276.827179 679.45477,271.15805 C683.970732,267.789798 686.905101,262.716953 687.571817,257.125554 C687.571817,257.125554 689.706403,242.082718 680.072677,237.480059 C677.39836,236.149628 674.567599,235.159626 671.646678,234.533235 L673.921697,217.048744 L666.900031,216.319055 L664.681185,232.76514 L659.906452,232.288035 L661.619738,215.757755 L654.317205,215 L652.716265,230.491876 L636.819213,229.060561 L635.92044,240.511078 L641.734379,241.381093 C643.560012,241.633678 644.795826,243.935007 644.543046,246.573117 L639.852573,292.34712 C639.655966,294.311669 638.420153,295.827179 637.043906,295.799114 L630.02224,295.574594 L628,307.418021 Z" id="Path" stroke="#EEC836" stroke-width="2" stroke-linecap="round" stroke-linejoin="round"></path><g id="Group-3" transform="translate(45.000000, 128.000000)" fill-rule="nonzero" stroke="#35C4BA" stroke-linecap="round" stroke-linejoin="round" stroke-width="2"><line x1="18.9014085" y1="22.028169" x2="56.3380282" y2="51.5492958" id="Path"></line><line x1="19.2957746" y1="70.3661972" x2="47.0422535" y2="74.084507" id="Path"></line><line x1="59.2676056" y1="4.52970994e-14" x2="74.9295775" y2="39.8873239" id="Path"></line><line x1="8.67605634" y1="68.6197183" x2="1.69864123e-13" y2="67.4647887" id="Path"></line></g><g id="Group-2" transform="translate(746.000000, 8.000000)" stroke="#616670" stroke-linecap="round" stroke-linejoin="round" stroke-width="2"><line x1="20.4225352" y1="1.60435046e-13" x2="20.4225352" y2="13.6338028" id="Path"></line><line x1="20.4225352" y1="27.1830986" x2="20.4225352" y2="40.8450704" id="Path"></line><line x1="40.8450704" y1="20.4225352" x2="27.1830986" y2="20.4225352" id="Path"></line><line x1="13.6619718" y1="20.4225352" x2="8.02175228e-14" y2="20.4225352" id="Path"></line></g><path d="M656,364.076895 L689.934462,366.892403 C719.627117,369.341894 747.170589,329.671393 751.440676,278.28838 C755.710762,226.905366 735.067297,183.264999 705.374643,180.815508 L671.44018,178" id="Path" stroke="#EEC836" stroke-width="2" stroke-linecap="round" stroke-linejoin="round"></path><path d="M708,316 C707.070796,318.763636 706.061947,321.410909 705,324" id="Path" stroke="#EEC836" stroke-width="2" fill="#FFFFFF" fill-rule="nonzero" stroke-linecap="round" stroke-linejoin="round"></path><path d="M657.092479,246 L655,266.588846 C655,266.588846 671.739835,269.848747 672.939523,258.01016 C674.139211,246.171574 657.092479,246 657.092479,246 Z" id="Path" stroke="#EEC836" stroke-width="2" stroke-linecap="round" stroke-linejoin="round"></path><path d="M654.395545,276 L652,298.529614 C652,298.529614 671.563619,302.162514 672.932502,289.236148 C674.301385,276.309782 654.395545,276 654.395545,276 Z" id="Path" stroke="#EEC836" stroke-width="2" stroke-linecap="round" stroke-linejoin="round"></path></g></svg>