<svg xmlns="http://www.w3.org/2000/svg" xmlns:xlink="http://www.w3.org/1999/xlink" width="889px" height="508px" viewBox="0 0 889 508"><title>Artboard</title><g id="Artboard" stroke="none" stroke-width="1" fill="none" fill-rule="evenodd"><g id="giving"><line x1="592.44" y1="344.6" x2="592.44" y2="491.24" id="Path" stroke="#35C4BA" stroke-linecap="round" stroke-linejoin="round"></line><path d="M557.54,169.73 C557.54,169.73 546.26,199.73 489.01,202.18 C475.67,202.76 462.34,199.18 451.6,191.29 C446.624209,187.615466 442.240118,183.201024 438.6,178.2" id="Path" stroke="#616670" stroke-linecap="round" stroke-linejoin="round"></path><path d="M537.38,87.65 C543.05,74.65 553.17,67.81 564.92,74.29 C576.67,80.77 568.6,101.15 561.72,116.54 C554.84,131.93 541.13,124.18 541.13,124.18 L541.94,145.32 L541.94,145.32 C542.232595,152.308062 545.346545,158.878749 550.57,163.53 L554.13,166.7" id="Path" stroke="#35C4BA" stroke-linecap="round" stroke-linejoin="round"></path><path d="M554.13,87.23 C554.13,87.23 542.4,93.23 541.46,105.95" id="Path" stroke="#35C4BA" stroke-linecap="round" stroke-linejoin="round"></path><path d="M520.37,156.28 C506.17,164.28 479.6,184.28 446.79,167.41 C414.68,150.95 427.41,46.41 427.41,46.41 C427.41,46.41 431.11,0.55 495.84,0.5 C554.13,0.5 549.74,73.24 549.74,73.24" id="Path" stroke="#35C4BA" stroke-linecap="round" stroke-linejoin="round"></path><path d="M520.37,156.28 C520.37,156.28 506.16,171.5 490.08,180.07 C477.781308,186.542977 462.576437,182.581389 455,170.93 L455,170.93 C455,170.93 479.22,184.56 520.37,156.28 Z" id="Path" stroke="#35C4BA" fill="#35C4BA" fill-rule="nonzero" stroke-linecap="round" stroke-linejoin="round"></path><path d="M429.28,38.41 C429.28,38.41 434.74,30.06 441.62,36.41 C448.5,42.76 477.76,51.84 496.98,38.41 C516.2,24.98 525.14,41.13 517.9,48.79 C510.66,56.45 507.08,77.79 520.37,85.41 C533.66,93.03 540.05,82.55 540.05,82.55 C540.05,82.55 546.75,72.92 549.82,71.38 C552.89,69.84 548.52,8.76 509.46,2 C509.46,2 462.63,-7.85 437.52,23.27 C437.52,23.27 429,33.81 429.28,38.41 Z" id="Path" fill="#35C4BA" fill-rule="nonzero" opacity="0.2"></path><path d="M450.6,71.81 L447.76,109.23 C447.601755,110.976898 448.189658,112.709245 449.378445,113.999003 C450.567233,115.288762 452.246019,116.015626 454,116.000247 L464.5,116.000247" id="Path" stroke="#35C4BA" stroke-linecap="round" stroke-linejoin="round"></path><path d="M438.61,132.830001 L476.31,132.830001 C485.306467,132.831327 494.211916,131.029155 502.5,127.53 L504.17,126.82" id="Path" stroke="#35C4BA" stroke-linecap="round" stroke-linejoin="round"></path><line x1="456.99" y1="115.95" x2="456.99" y2="132.83" id="Path" stroke="#35C4BA" stroke-linecap="round" stroke-linejoin="round"></line><path d="M486.15,83.51 C486.15,83.51 473.41,72.78 464.45,83.51" id="Path" stroke="#35C4BA" stroke-linecap="round" stroke-linejoin="round"></path><path d="M443.62,83.51 C443.62,83.51 434.43,72.78 425.47,83.51" id="Path" stroke="#35C4BA" stroke-linecap="round" stroke-linejoin="round"></path><path d="M557.54,169.73 L624.41,196.6 C659.527461,210.714287 682.640604,244.643321 682.92,282.49 L684.14,342.27 C684.14,342.27 641.5,334.03 592.44,344.6 L594.86,266.17" id="Path" stroke="#616670" stroke-linecap="round" stroke-linejoin="round"></path><path d="M366.89,414.18 L332,431.35 C326.086126,434.137518 319.309541,434.471854 313.15,432.28 L295.73,426.09 C292.883879,425.078794 289.714725,425.657774 287.41,427.61 L266.08,445.71 C263.293384,448.073903 262.93194,452.241665 265.27,455.05 L265.27,455.05 C267.270791,457.451808 270.671225,458.141872 273.45,456.71 L298.28,443.86" id="Path" stroke="#35C4BA" stroke-linecap="round" stroke-linejoin="round"></path><path d="M377.93,473.23 L352.86,477 C348.386248,477.668681 344.301553,479.922183 341.35,483.35 L335.46,490.17 C333.359642,492.617758 330.662477,494.481316 327.63,495.58 L319.63,498.48" id="Path" stroke="#35C4BA" stroke-linecap="round" stroke-linejoin="round"></path><path d="M243.54,463.43 L259.84,459.97 C262.960886,459.30159 266.112174,460.965705 267.32,463.92 L267.32,463.92 C268.66553,467.217575 267.152073,470.987942 263.9,472.44 L248.67,479.23 C246.441999,480.219975 243.892848,480.188022 241.69036,479.142513 C239.487873,478.097004 237.851525,476.142124 237.21,473.79 L237.21,473.79 C236.607311,471.57323 236.944529,469.206079 238.142271,467.245794 C239.340012,465.285509 241.292463,463.905271 243.54,463.43 L243.54,463.43 Z" id="Path" stroke="#35C4BA" stroke-linecap="round" stroke-linejoin="round"></path><path d="M253.75,476.87 C253.16887,480.474785 254.793789,484.078721 257.88,486.03 C260.65,487.72 264.41,487.97 266.34,490.57 C267.47,492.1 267.76,494.22 269.21,495.45 C270.66,496.68 272.92,496.6 274.6,497.59 C276.5,498.71 277.36,500.98 278.86,502.59 C280.635045,504.358061 282.990165,505.423726 285.49,505.59 C289.669758,506.001044 293.833729,504.667799 296.997422,501.905485 C300.161114,499.14317 302.043672,495.19701 302.2,491" id="Path" stroke="#35C4BA" stroke-linecap="round" stroke-linejoin="round"></path><path d="M263.57,488.22 C263.57,488.22 275.4,487.57 283.69,478.62 C285.724807,476.336617 286.097562,473.017888 284.62,470.34 L284.62,470.34 C282.716802,466.787354 278.297227,465.445378 274.74,467.34 L264.81,471.93" id="Path" stroke="#35C4BA" stroke-linecap="round" stroke-linejoin="round"></path><path d="M275.91,498.68 C283.466109,498.087297 290.508353,494.623428 295.59,489 C297.635573,486.718275 298.01276,483.391802 296.53,480.71 L296.53,480.71 C294.626802,477.157354 290.207227,475.815378 286.65,477.71 L282.19,480.08" id="Path" stroke="#35C4BA" stroke-linecap="round" stroke-linejoin="round"></path><line x1="216.35" y1="461.88" x2="220.27" y2="504.09" id="Path" stroke="#7E88C7" stroke-linecap="round" stroke-linejoin="round"></line><path d="M216.35,465.24 L150.58,476.24 C144.092416,477.318172 137.767336,473.582158 135.58,467.38 L107.14,386.76 L134,443.43 C134,443.43 138.34,462.43 162.61,461.66 L215.86,460.4 L216.35,465.24 Z" id="Path" fill="#7E88C7" fill-rule="nonzero"></path><path d="M292.19,381.94 C283.021836,411.34359 255.799778,431.37 225,431.37" id="Path" stroke="#EEC836" stroke-linecap="round" stroke-linejoin="round"></path><path d="M188.4,300.91 C218.297132,282.706066 257.02929,289.247364 279.29,316.26 C281.199488,319.064973 282.900716,322.006193 284.38,325.06" id="Path" stroke="#EEC836" stroke-linecap="round" stroke-linejoin="round"></path><path d="M275.91,375.31 C269.469458,398.661014 248.222929,414.832279 224,414.820007 C220.984434,414.81901 217.974136,414.568152 215,414.07" id="Path" stroke="#EEC836" stroke-linecap="round" stroke-linejoin="round"></path><path d="M196.6,314.72 C210.373624,306.561906 227.063652,304.957411 242.13921,310.342091 C257.214767,315.726771 269.111581,327.5419 274.6,342.58" id="Path" stroke="#EEC836" stroke-linecap="round" stroke-linejoin="round"></path><line x1="381.69" y1="380.56" x2="376.9" y2="498.44" id="Path" stroke="#616670" stroke-linecap="round" stroke-linejoin="round"></line><line x1="382.38" y1="363.57" x2="382.02" y2="372.31" id="Path" stroke="#616670" stroke-linecap="round" stroke-linejoin="round"></line><line x1="386.02" y1="273.8" x2="382.81" y2="352.85" id="Path" stroke="#616670" stroke-linecap="round" stroke-linejoin="round"></line><path d="M204,330 C208.37,340.18 211.62,350.71 212.15,360.19 C214,393.19 215.84,430.32 215.84,430.32" id="Path" stroke="#7E88C7" stroke-linecap="round" stroke-linejoin="round"></path><path d="M199.39,320.07 C200.04,321.36 200.68,322.67 201.3,323.98" id="Path" stroke="#7E88C7" stroke-linecap="round" stroke-linejoin="round"></path><path d="M168.32,272.21 C168.32,272.21 186.67,296.21 196.65,314.81" id="Path" stroke="#7E88C7" stroke-linecap="round" stroke-linejoin="round"></path><line x1="356.6" y1="321.26" x2="356.6" y2="412.12" id="Path" stroke="#35C4BA" stroke-linecap="round" stroke-linejoin="round"></line><path d="M267.92,438.44 C265.667308,437.375421 263.242555,436.721822 260.76,436.51 L173,424.35" id="Path" stroke="#35C4BA" stroke-linecap="round" stroke-linejoin="round"></path><path d="M250.19,462.54 C248.772905,460.80068 246.633007,459.811899 244.39,459.86 L173,461.2 L158.4,461.86 C149.152159,462.274248 140.557261,457.103911 136.59,448.74 L100.96,373.69" id="Path" stroke="#35C4BA" stroke-linecap="round" stroke-linejoin="round"></path><path d="M370.58,231.84 C364.86414,241.514827 360.941269,252.14181 359,263.21 L348.85,320.21 L381.17,324.44" id="Path" stroke="#616670" stroke-linecap="round" stroke-linejoin="round"></path><path d="M376.16,223.55 C375.22,224.79 374.313333,226.053333 373.44,227.34" id="Path" stroke="#616670" stroke-linecap="round" stroke-linejoin="round"></path><path d="M438.61,178.2 L400,202 C399,202.6 398.07,203.21 397.12,203.84 C391.239274,207.752692 385.865134,212.377811 381.12,217.61" id="Path" stroke="#616670" stroke-linecap="round" stroke-linejoin="round"></path><path d="M296.17,462.61 L301.31,482.79 C301.556886,483.76587 302.206455,484.591049 303.097062,485.060191 C303.987669,485.529333 305.035572,485.598326 305.98,485.25 L305.98,485.25 C307.581853,484.654636 308.534674,483.005038 308.25,481.32 L303.85,458.82 C302.87473,453.843828 298.956778,449.969498 293.97,449.05 L289.74,448.27" id="Path" stroke="#35C4BA" stroke-linecap="round" stroke-linejoin="round"></path><line x1="292.07" y1="477.14" x2="288.19" y2="461.88" id="Path" stroke="#35C4BA" stroke-linecap="round" stroke-linejoin="round"></line><path d="M296.54,464.06 L300.26,480.58 C300.554307,482.26383 299.603369,483.917454 298,484.51 L298,484.51" id="Path" stroke="#35C4BA" stroke-linecap="round" stroke-linejoin="round"></path><line x1="172.97" y1="424.35" x2="143.11" y2="360.16" id="Path" stroke="#35C4BA" stroke-linecap="round" stroke-linejoin="round"></line><line x1="684.14" y1="481.4" x2="684.14" y2="491.24" id="Path" stroke="#35C4BA" stroke-linecap="round" stroke-linejoin="round"></line><line x1="684.14" y1="344.6" x2="684.14" y2="466.49" id="Path" stroke="#35C4BA" stroke-linecap="round" stroke-linejoin="round"></line><path d="M122,312.29 L141.89,355.55 C118.56,353.83 94.5,368.81 94.5,368.81 L89.33,358.72" id="Path" stroke="#7E88C7" stroke-linecap="round" stroke-linejoin="round"></path><path d="M73.81,418.09 C74.96,464.48 76.7,507.35 76.7,507.35" id="Path" stroke="#7E88C7" stroke-linecap="round" stroke-linejoin="round"></path><path d="M73.59,409.15 C73.59,410.47 73.65,411.78 73.69,413.15" id="Path" stroke="#7E88C7" stroke-linecap="round" stroke-linejoin="round"></path><path d="M111.71,257.68 C111.71,257.68 80.38,286.09 74.85,305.52 C72.3,314.52 72.5,358.17 73.45,402.62" id="Path" stroke="#7E88C7" stroke-linecap="round" stroke-linejoin="round"></path><path d="M106,207.9 C106,207.9 112.9,211.46 113.46,218.9 C113.46,218.9 109.67,216.34 106.67,216.79" id="Path" stroke="#35C4BA" stroke-linecap="round" stroke-linejoin="round"></path><path d="M181.5,183.29 C181.5,183.29 188.99,244.8 170.09,254.49 C150.78,264.39 135.15,252.64 126.79,247.94" id="Path" stroke="#35C4BA" stroke-linecap="round" stroke-linejoin="round"></path><path d="M182.16,190.25 C182.16,190.25 173.88,186.91 168.16,190.94 C166.041749,192.500912 164.850497,195.022459 164.99,197.65 L165.91,220.56 C165.948101,221.417871 165.321841,222.161555 164.47,222.27 L158.65,223.05" id="Path" stroke="#35C4BA" stroke-linecap="round" stroke-linejoin="round"></path><path d="M170.42,206 C170.42,206 175.58,199.84 180.29,206" id="Path" stroke="#35C4BA" stroke-linecap="round" stroke-linejoin="round"></path><path d="M145,206 C145,206 150.16,199.84 154.87,206" id="Path" stroke="#35C4BA" stroke-linecap="round" stroke-linejoin="round"></path><path d="M138,194.29 C138,194.29 148.89,188.6 158.64,194.29" id="Path" stroke="#35C4BA" stroke-linecap="round" stroke-linejoin="round"></path><path d="M140.08,226.07 C140.08,226.07 143.52,237.96 160.42,236.71" id="Path" stroke="#35C4BA" stroke-linecap="round" stroke-linejoin="round"></path><path d="M103.31,196.92 C103.31,196.92 96.25,179.16 99.84,173 C103.43,166.84 107.28,166.67 107.28,166.67 C107.28,166.67 121.49,141.43 148.34,141.77 C175.19,142.11 155.78,150.54 155.78,150.54 C155.78,150.54 176.87,145.82 184.63,146.83 C192.39,147.84 184.03,154.92 184.03,154.92 C184.03,154.92 205.55,157.83 204.87,165.58 C204.19,173.33 194.82,181.94 194.82,181.94" id="Path" stroke="#35C4BA" stroke-linecap="round" stroke-linejoin="round"></path><path d="M115.94,176.13 C115.94,176.13 134.94,184.89 146.36,185.13 C157.78,185.37 146.36,179.28 146.36,179.28 C146.36,179.28 161.52,186.18 169.42,185.13 C177.32,184.08 169.42,177.76 169.42,177.76 C169.42,177.76 179.74,184.28 186.86,181.53" id="Path" stroke="#35C4BA" stroke-linecap="round" stroke-linejoin="round"></path><path d="M118.65,178 C118.65,178 123.57,199.51 117.06,208" id="Path" stroke="#35C4BA" stroke-linecap="round" stroke-linejoin="round"></path><path d="M166.05,263.76 C166.05,263.76 137.26,273.26 126.79,247.94 C126.79,247.94 148.36,264.06 166,256.29 L166.05,263.76 Z" id="Path" stroke="#35C4BA" fill="#35C4BA" fill-rule="nonzero" stroke-linecap="round" stroke-linejoin="round"></path><path d="M113.52,259.49 L113.74,250.76 L114.57,229.05 C114.57,229.05 106.51,233.61 102.46,224.55 C98.41,215.49 93.66,203.5 100.58,199.69 C107.5,195.88 113.45,199.92 116.78,207.55" id="Path" stroke="#35C4BA" stroke-linecap="round" stroke-linejoin="round"></path><path d="M169.1,277.6 C169.465391,280.161836 168.710381,282.756993 167.027707,284.722984 C165.345033,286.688975 162.897533,287.835545 160.31,287.87 C148.49,288.05 128.6,284.58 113.45,262.73" id="Path" stroke="#7E88C7" stroke-linecap="round" stroke-linejoin="round"></path><line x1="166" y1="256.29" x2="167.74" y2="268.26" id="Path" stroke="#35C4BA" stroke-linecap="round" stroke-linejoin="round"></line><path d="M283.11,337.22 L269.64,345.7 C268.109141,346.650317 267.031004,348.182773 266.653723,349.944673 C266.276443,351.706573 266.632519,353.546142 267.64,355.04 C268.503134,356.244103 269.54125,357.312553 270.72,358.21 C270.72,358.21 268.08,363.12 273.99,367.51 C273.846902,367.83456 273.72661,368.168704 273.63,368.51 C273.006298,370.629904 273.556089,372.921549 275.073718,374.527724 C276.591348,376.133899 278.84817,376.812618 281,376.31 L292.91,373.53 C297.561563,372.414439 301.047042,368.5514 301.68,363.81 C302.91,354.54 302.45,339.18 289.46,327.89" id="Path" stroke="#35C4BA" stroke-width="1.2" stroke-linecap="round" stroke-linejoin="round"></path><path d="M289.48,368.75 C289.938776,367.098663 289.669467,365.329958 288.74,363.89 C287.807803,362.493304 287.055214,360.984768 286.5,359.4 C286.15,358 286.29,356.51 285.97,355.1 C285.58896,353.420029 284.561444,351.957795 283.11,351.03" id="Path" stroke="#35C4BA" stroke-width="1.2" stroke-linecap="round" stroke-linejoin="round"></path><path d="M94.89,83.5003257 L337.07,83.5003257 C337.444352,83.5111034 337.766379,83.2371117 337.81537,82.8658127 C337.864361,82.4945137 337.624421,82.1463736 337.26,82.06 L306.26,74.06 C298.50858,72.0670118 292.510308,65.9261077 290.7,58.13 C283.49,26.77 254.05,-45.36 143.7,63.35 C143.7,63.35 137.06,44.5 114.39,56.23 C114.39,56.23 92.2,-5.08 45.24,68.59 C43.4001639,71.4540442 40.4967967,73.4687724 37.17,74.19 L1.17,82.06 C0.813177496,82.1447546 0.574631254,82.4810956 0.612628795,82.845872 C0.650626337,83.2106484 0.953370256,83.4906051 1.32,83.5003257 L60.72,83.5003257" id="Path" stroke="#35C4BA" stroke-width="1.2" opacity="0.2" stroke-linecap="round" stroke-linejoin="round"></path><path d="M684.5,221.23 C696.96,229.23 711.08,242.72 727.12,263.52 C727.12,263.52 748.46,232.03 775.53,266.83 C775.53,266.83 821.82,194.83 843.83,282.38 C844.83,286.46 848.52,288.52 851.83,289.44 L887.38,299.34 C888.22,299.57 888.09,301.16 887.22,301.16 L684.14,301.16" id="Path" stroke="#35C4BA" stroke-width="1.2" opacity="0.2" stroke-linecap="round" stroke-linejoin="round"></path><path d="M214,357.56 L218.26,331.77 L243.85,336 C247.678487,336.632367 251.098926,338.759786 253.358773,341.914194 C255.618619,345.068602 256.532734,348.991574 255.9,352.82 L255.9,352.82 C255.267633,356.648487 253.140214,360.068926 249.985806,362.328773 C246.831398,364.588619 242.908426,365.502734 239.08,364.87 L215.08,360.87" id="Path" stroke="#EEC836" stroke-linecap="round" stroke-linejoin="round"></path><path d="M215.84,361 L239.08,364.84 C247.033565,366.185946 252.399771,373.71205 251.08,381.67 L251.08,381.67 C249.758239,389.643871 242.224511,395.037895 234.25,393.72 L215.79,390.22" id="Path" stroke="#EEC836" stroke-linecap="round" stroke-linejoin="round"></path><line x1="218.27" y1="331.77" x2="213.57" y2="330.99" id="Path" stroke="#EEC836" stroke-linecap="round" stroke-linejoin="round"></line><line x1="218.63" y1="391.16" x2="217.25" y2="399.51" id="Path" stroke="#EEC836" stroke-linecap="round" stroke-linejoin="round"></line><line x1="230.73" y1="393.16" x2="229.35" y2="401.51" id="Path" stroke="#EEC836" stroke-linecap="round" stroke-linejoin="round"></line><line x1="229.56" y1="325.06" x2="228.18" y2="333.41" id="Path" stroke="#EEC836" stroke-linecap="round" stroke-linejoin="round"></line><line x1="241.65" y1="327.06" x2="240.27" y2="335.41" id="Path" stroke="#EEC836" stroke-linecap="round" stroke-linejoin="round"></line></g><g id="Group" transform="translate(475.500000, 86.000000) scale(-1, 1) translate(-475.500000, -86.000000) translate(401.000000, 71.000000)"><path d="M0,1.20000271 L68.1,0.112502713 L68.1,0.112502713 C69.1125,0.112502713 70.125,0 71.1,0 L127.575,0 L127.575,0 L127.575,0 L127.575,0 L146.1,0 C146.782837,-0.00104770732 147.43044,0.303009282 147.865796,0.82906386 C148.301151,1.35511844 148.478733,2.04815912 148.35,2.71875271 C147.46875,7.25625271 145.3875,16.2562527 142.125,19.9312527 L142.125,19.9312527 C138.258179,26.0777147 131.420303,29.7107824 124.1625,29.4750027 C109.575,29.4750027 104.1375,17.9437527 102.15,10.5750027 C101.907787,9.66969799 101.869365,8.72194317 102.0375,7.80000271 C99.7122913,6.75076023 97.0814996,6.5971861 94.65,7.36875271 C93.6489608,7.62254696 92.9051714,8.46302896 92.775,9.48750271 L92.775,10.0875027 C92.7022116,10.7863761 92.5641082,11.4768933 92.3625,12.1500027 C90.225,19.4437527 84.8625,29.4750027 70.725,29.4750027 C56.1375,29.4750027 50.4375,18 48.7125,10.5750027 C48.3670147,9.2575393 48.1720193,7.90515192 48.13125,6.54375271 L6.13125,6.54375271 L0,1.20000271 Z" id="Path" fill="#35C4BA" fill-rule="nonzero"></path><line x1="129.54375" y1="23.2687527" x2="108.225" y2="5.70000271" id="Path" stroke="#FFFFFF" stroke-width="1.875" stroke-linecap="round" stroke-linejoin="round"></line><line x1="137.23125" y1="15.8250027" x2="124.93125" y2="5.70000271" id="Path" stroke="#FFFFFF" stroke-width="1.875" stroke-linecap="round" stroke-linejoin="round"></line><line x1="84.24375" y1="15.8250027" x2="71.94375" y2="5.70000271" id="Path" stroke="#FFFFFF" stroke-width="1.875" stroke-linecap="round" stroke-linejoin="round"></line><line x1="78.20625" y1="23.2687527" x2="56.8875" y2="5.70000271" id="Path" stroke="#FFFFFF" stroke-width="1.875" stroke-linecap="round" stroke-linejoin="round"></line></g></g></svg>