<svg xmlns="http://www.w3.org/2000/svg" xmlns:xlink="http://www.w3.org/1999/xlink" width="806px" height="750px" viewBox="0 0 806 750"><title>Keyless-Left3</title><g id="Page-1" stroke="none" stroke-width="1" fill="none" fill-rule="evenodd"><g id="Keyless-Left3" transform="translate(1.000000, 1.000000)"><path d="M307.83,294.27 L269.12,340.86 C264.836414,345.98236 257.221923,346.687984 252.07,342.44 L251.22,341.73 C246.09764,337.446414 245.392016,329.831923 249.64,324.68 L328.64,229.55 C332.932902,224.40585 340.58165,223.712137 345.73,228 L346.58,228.7 C351.704486,232.983767 352.406031,240.602455 348.15,245.75 L341.15,254.2" id="Path" stroke="#616670" stroke-width="2" stroke-linecap="round" stroke-linejoin="round"></path><line x1="328.04" y1="269.93" x2="317.75" y2="282.32" id="Path" stroke="#616670" stroke-width="2" stroke-linecap="round" stroke-linejoin="round"></line><path d="M251.64,342.09 L179.06,281.79 C169.13,273.54 167.2,259.48 174.75,250.4 L241.92,169.54 C249.47,160.45 263.64,159.77 273.57,168.02 L346.15,228.32" id="Path" stroke="#616670" stroke-width="2" stroke-linecap="round" stroke-linejoin="round"></path><line x1="249.64" y1="324.68" x2="206.03" y2="288.45" id="Path" stroke="#616670" stroke-width="2" stroke-linecap="round" stroke-linejoin="round"></line><line x1="198.72" y1="282.38" x2="187.86" y2="273.36" id="Path" stroke="#616670" stroke-width="2" stroke-linecap="round" stroke-linejoin="round"></line><path d="M175.51,249.48 C153.402098,240.546547 139.770481,218.17045 141.971875,194.427667 C144.173269,170.684883 161.686497,151.196488 185.06,146.48 C186.590994,146.185056 188.175185,146.554992 189.417216,147.497485 C190.659246,148.439979 191.441953,149.866122 191.57,151.42 L191.57,151.42 C191.801573,154.207738 189.903779,156.72522 187.16,157.27 C168.043479,161.171993 153.949947,177.455607 152.830517,196.934154 C151.711087,216.412701 163.846357,234.203682 182.39,240.27" id="Path" stroke="#616670" stroke-width="2" stroke-linecap="round" stroke-linejoin="round"></path><line x1="206.03" y1="140.33" x2="208.79" y2="99.47" id="Path" stroke="#616670" stroke-width="2" stroke-linecap="round" stroke-linejoin="round"></line><line x1="220.73" y1="141.53" x2="231.89" y2="118.94" id="Path" stroke="#616670" stroke-width="2" stroke-linecap="round" stroke-linejoin="round"></line><line x1="229.77" y1="150.13" x2="257.42" y2="137.89" id="Path" stroke="#616670" stroke-width="2" stroke-linecap="round" stroke-linejoin="round"></line><line x1="263.41" y1="135.04" x2="271.84" y2="131.21" id="Path" stroke="#616670" stroke-width="2" stroke-linecap="round" stroke-linejoin="round"></line><line x1="109.43" y1="395.28" x2="109.43" y2="410.27" id="Path" stroke="#616670" stroke-width="2" stroke-linecap="round" stroke-linejoin="round"></line><line x1="109.43" y1="425.12" x2="109.43" y2="440.11" id="Path" stroke="#616670" stroke-width="2" stroke-linecap="round" stroke-linejoin="round"></line><line x1="131.84" y1="417.7" x2="116.85" y2="417.7" id="Path" stroke="#616670" stroke-width="2" stroke-linecap="round" stroke-linejoin="round"></line><line x1="102" y1="417.7" x2="87.01" y2="417.7" id="Path" stroke="#616670" stroke-width="2" stroke-linecap="round" stroke-linejoin="round"></line><path d="M493.48,188.92 L477.69,165.86 C472.81,158.75 493.08,136.38 522.96,115.86 C552.84,95.34 581,84.62 585.9,91.74 L601.69,114.8" id="Path" stroke="#35C4BA" stroke-width="2" fill="#FFFFFF" fill-rule="nonzero" stroke-linecap="round" stroke-linejoin="round"></path><ellipse id="Oval" stroke="#35C4BA" stroke-width="2" fill="#FFFFFF" fill-rule="nonzero" stroke-linecap="round" stroke-linejoin="round" transform="translate(547.592766, 151.872640) rotate(-34.410000) translate(-547.592766, -151.872640) " cx="547.592766" cy="151.87264" rx="65.58" ry="15.62"></ellipse><path d="M347.06,561.71 L328.26,582.4 C322.45,588.78 296.02,574.2 269.26,549.84 C242.5,525.48 225.43,500.55 231.26,494.16 L250,473.48" id="Path" stroke="#35C4BA" stroke-width="2" fill="#FFFFFF" fill-rule="nonzero" stroke-linecap="round" stroke-linejoin="round"></path><ellipse id="Oval" stroke="#35C4BA" stroke-width="2" fill="#FFFFFF" fill-rule="nonzero" stroke-linecap="round" stroke-linejoin="round" transform="translate(298.528561, 517.640788) rotate(-47.720000) translate(-298.528561, -517.640788) " cx="298.528561" cy="517.640788" rx="15.62" ry="65.58"></ellipse><path d="M564.39,744.66 L773.63,600.66 L547.72,716.79 C543.720588,718.844722 540.749801,722.46293 539.512807,726.785779 C538.275813,731.108628 538.885535,735.750657 541.19,739.61 L541.19,739.61 C543.499481,743.468989 547.302417,746.200719 551.696794,747.157254 C556.09117,748.113789 560.685479,747.209907 564.39,744.66 Z" id="Path" stroke="#616670" stroke-width="2" fill="#616670" fill-rule="nonzero" opacity="0.1" stroke-linecap="round" stroke-linejoin="round"></path><circle id="Oval" stroke="#616670" stroke-width="2" fill="#616670" fill-rule="nonzero" opacity="0.1" stroke-linecap="round" stroke-linejoin="round" cx="759.05" cy="44.78" r="44.78"></circle><path d="M53.93,652.32 C53.93,652.32 72.93,637.63 93.64,634.38" id="Path" stroke="#35C4BA" stroke-width="2" stroke-linecap="round" stroke-linejoin="round"></path><path d="M4.25,582.25 C8.68,580.96 12.86,584.55 16.99,585.58 C19.4041895,586.074499 21.8811758,586.185862 24.33,585.91 L32.74,585.31 L32,585 C34,587.1 33.75,590.2 33,592.78 C32.09,595.71 30.3,598.3 29.2,601.16 C28.6507118,602.542295 28.3298579,604.004713 28.25,605.49 C28.17,607.04 28.49,608.66 27.42,609.95 C25.7,612.05 22.63,613.61 23.61,616.85 C23.7747655,617.410286 24.3550791,617.738097 24.92,617.59 L37.78,614.35 C40.78,613.6 45.55,612.69 46.42,616.8 C47.23,620.63 44.52,624.29 44.71,628.16 C44.81,630.16 45.38,632.16 45.5,634.16 C45.6026928,635.967682 45.4375744,637.780614 45.01,639.54 C44.0659353,643.4622 41.8979534,646.982106 38.82,649.59 C37.77,650.47 39.28,651.97 40.32,651.09 C44.8342876,647.222327 47.4978805,641.622604 47.65,635.68 C47.536837,633.386599 47.2830266,631.102305 46.89,628.84 C46.46,624.51 49.44,620.58 48.47,616.23 C47.57,612.23 43.71,611.18 40.11,611.69 C37.6345998,612.132943 35.1844802,612.707085 32.77,613.41 L24.35,615.53 L25.66,616.28 C25.01,614.11 28.02,612.6 29.15,611.17 C30.57,609.38 30.24,607.39 30.38,605.27 C30.69,600.73 34.04,597.1 35.2,592.8 C35.7304539,591.00237 35.8399481,589.106751 35.52,587.26 C35.26,585.96 34.34,583.36 32.79,583.18 C31.4510752,583.157367 30.1127141,583.251052 28.79,583.46 L24.79,583.75 C22.2537091,584.079542 19.6796719,583.971304 17.18,583.43 C12.71,582.18 8.55,578.79 3.69,580.2 C3.24225359,580.430234 3.0182359,580.943658 3.1539871,581.428484 C3.28973829,581.913309 3.74779869,582.235752 4.25,582.2 L4.25,582.25 Z" id="Path" fill="#35C4BA" fill-rule="nonzero"></path><path d="M84.86,555.13 C81.63,553.32 77.27,555.44 75.14,558.06 C73.84,559.66 73.39,561.77 72.71,563.67 C72.0453233,565.946274 70.5016277,567.864199 68.42,569 C66.42,570.08 64.69,571.2 63.74,573.32 C62.9800216,575.194858 62.7382449,577.239599 63.04,579.24 C63.3289381,581.384053 63.8520631,583.489966 64.6,585.52 C65.25,587.38 66.12,589.45 68.09,590.22 C69.7176152,590.97665 71.6539027,590.391461 72.59,588.86 C73.1,587.86 72.89,586.67 73.96,586.09 C75.2380521,585.537577 76.5827443,585.15434 77.96,584.95 C80.39,584.41 83.17,584.28 85.27,585.86 C86.08,586.46 87.11,587.66 86.82,588.77 C86.53,589.88 84.65,590.61 83.71,591.09 C79.3,593.38 74.31,594.86 71.17,598.96 C69.8135012,600.64902 69.0010869,602.709693 68.84,604.87 C68.8526036,607.142025 69.7119058,609.327719 71.25,611 C72.8289359,613.096713 74.8068659,614.860538 77.07,616.19 C79.3950412,617.349979 82.0685897,617.603075 84.57,616.9 C87.47,616.26 90.06,615.55 92.98,616.56 C95.7198169,617.693604 98.2460807,619.286469 100.45,621.27 C101.51,622.12 103.02,620.63 101.95,619.77 C98.53,617.01 94.73,614.06 90.15,613.86 C87.75,613.75 85.5,614.62 83.15,615.03 C80.7469915,615.473384 78.2719965,614.812406 76.41,613.23 C74.5208016,611.797084 72.9165101,610.023206 71.68,608 C70.6431069,605.975679 70.7378836,603.556978 71.93,601.62 C74.32,597.28 79.17,595.62 83.38,593.62 C85.14,592.79 87.73,591.82 88.62,589.95 C89.51,588.08 88.51,586.03 87.18,584.74 C83.74,581.41 78.58,582.45 74.48,583.68 C73.6092547,583.879796 72.7932378,584.269026 72.09,584.82 C71.4352545,585.530117 71.0130793,586.423314 70.88,587.38 C70.7825169,587.826964 70.4698693,588.196569 70.045256,588.366815 C69.6206428,588.537061 69.1392589,588.485818 68.76,588.23 C67.8453193,587.635448 67.1828285,586.723632 66.9,585.67 C65.57,582.24 63.9,577.32 65.9,573.83 C67.11,571.62 69.7,571.05 71.55,569.53 C73.4,568.01 74.24,565.86 74.98,563.71 C75.72,561.56 76.26,559.54 78.19,558.14 C79.65,557 82,556 83.79,557 C84.2897485,557.224969 84.8786898,557.035964 85.1541961,556.562196 C85.4297025,556.088428 85.3026942,555.483082 84.86,555.16 L84.86,555.13 Z" id="Path" fill="#35C4BA" fill-rule="nonzero"></path><path d="M20.11,558.68 C20.11,558.68 47.78,560.28 62.29,547.12" id="Path" stroke="#35C4BA" stroke-width="2" stroke-linecap="round" stroke-linejoin="round"></path><path d="M11.82,631.47 C10.6737861,629.958997 9.60572011,628.390275 8.62,626.77" id="Path" stroke="#616670" stroke-width="2" stroke-linecap="round" stroke-linejoin="round"></path><path d="M5.8,621.44 C-5.74616369,596.336378 3.9314363,566.574271 28.034019,553.062379 C52.1366017,539.550487 82.5758502,546.823116 97.9673528,569.771043 C113.358855,592.718971 108.537549,623.641357 86.8905352,640.814373 C65.243521,657.98739 34.0350788,655.648135 15.19,635.44" id="Path" stroke="#616670" stroke-width="2" stroke-linecap="round" stroke-linejoin="round"></path><circle id="Oval" stroke="#35C4BA" stroke-width="2" stroke-linecap="round" stroke-linejoin="round" cx="602.88" cy="599.39" r="21.74"></circle></g></g></svg>