<svg xmlns="http://www.w3.org/2000/svg" xmlns:xlink="http://www.w3.org/1999/xlink" width="810px" height="652px" viewBox="0 0 810 652"><title>Keyless-Right3</title><g id="Page-1" stroke="none" stroke-width="1" fill="none" fill-rule="evenodd"><g id="Keyless-Right3" stroke-width="2"><line x1="22.95" y1="606.2" x2="22.95" y2="621.19" id="Path" stroke="#616670"></line><line x1="22.95" y1="636.04" x2="22.95" y2="651.03" id="Path" stroke="#616670"></line><line x1="45.37" y1="628.62" x2="30.38" y2="628.62" id="Path" stroke="#616670"></line><line x1="15.52" y1="628.62" x2="0.54" y2="628.62" id="Path" stroke="#616670"></line><line x1="110.12" y1="0.63" x2="110.12" y2="15.62" id="Path" stroke="#616670"></line><line x1="110.12" y1="30.47" x2="110.12" y2="45.46" id="Path" stroke="#616670"></line><line x1="132.54" y1="23.04" x2="117.55" y2="23.04" id="Path" stroke="#616670"></line><line x1="102.7" y1="23.04" x2="87.71" y2="23.04" id="Path" stroke="#616670"></line><line x1="706.25" y1="190.27" x2="706.25" y2="205.26" id="Path" stroke="#616670"></line><line x1="706.25" y1="220.11" x2="706.25" y2="235.1" id="Path" stroke="#616670"></line><line x1="728.67" y1="212.68" x2="713.68" y2="212.68" id="Path" stroke="#616670"></line><line x1="698.82" y1="212.68" x2="683.84" y2="212.68" id="Path" stroke="#616670"></line><path d="M374.26,383.62 C370.43088,388.579138 367.10765,393.909028 364.34,399.53 C358.2,412.84 339.4,424.62 319.26,427.77 C310.91726,429.091412 302.5077,429.949395 294.07,430.34 L291.27,430.41 C280.48681,430.845465 270.02438,434.2016 261,440.12 L228.19,462" id="Path" stroke="#616670"></path><path d="M415.87,478.53 C419.39,471.43 417.92,464.77 411.87,460.53 L410.23,459.39 L409.73,459.01 C400.23,451.79 396.05,441.64 398.16,430.24 C398.75051,427.071536 399.63431,423.964834 400.8,420.96" id="Path" stroke="#616670"></path><path d="M451.39,389.1 C447.92272,390.06172 444.69175,391.729976 441.9,394 C441.9,394 445.68,392.42 447.1,393.1" id="Path" stroke="#616670"></path><path d="M401.29,420.47 C391.10746,423.84926 380.01882,423.212558 370.29,418.69" id="Path" stroke="#616670"></path><path d="M454.1,380.35 C458.51,378.16 463.17,376.74 464.97,379.23 C464.97,379.23 468.11,382.56 453.81,393.58 C452.81,394.38 451.74,395.21 450.71,396.04 C447,399.04 437.16,406.23 434.07,401.27" id="Path" stroke="#616670"></path><path d="M379.59,371.75 C379.59,371.75 380.88,374.55 377.97,378.55 C377.97,378.55 378.04,376.07 376.09,375.94" id="Path" stroke="#616670"></path><path d="M435.52,399.51 C422.01,413.19 401.29,420.51 401.29,420.51" id="Path" stroke="#616670"></path><path d="M398,430.1 C398,430.1 373.48,427.3 370.29,418.69 C370.29,418.69 383.4,425.89 400.84,420.97 L398,430.1 Z" id="Path" stroke="#616670" fill="#616670" fill-rule="nonzero"></path><path d="M331.71,424.74 L331.85,424.9 C342.53,436.58 372.11,442.53 396.76,439.67" id="Path" stroke="#616670"></path><path d="M319.26,427.77 C319.26,427.77 328.39,440.29 353.9,444.83" id="Path" stroke="#616670"></path><path d="M363.36,446.28 C363.36,446.28 372.16,447.88 379.02,446.65" id="Path" stroke="#616670"></path><path d="M386.3,360.22 C386.3,360.22 391.62,346.71 398.71,343.22 C405.8,339.73 409.22,340.49 409.22,340.49 C409.22,340.49 437.76,326.34 460.78,332.18 C483.8,338.02 461.57,339.68 461.57,339.68 C461.57,339.68 482.86,340.89 488.92,343.2 C494.98,345.51 483.19,348.56 483.19,348.56 C483.19,348.56 499.94,355.03 494.37,360.15 C488.8,365.27 475.14,369.15 475.14,369.15 C471.48795,372.418627 467.59716,375.410262 463.5,378.1" id="Path" stroke="#616670"></path><path d="M408.87,349.16 C408.87,349.16 420.29,359.63 430.56,362.32 C440.83,365.01 434.56,358.13 434.56,358.13 C434.56,358.13 443.73,366.42 451.66,367.42 C459.59,368.42 456.66,362.14 456.66,362.14 C456.66,362.14 460.86,367.55 465.77,367.63" id="Path" stroke="#616670"></path><path d="M388.32,372.63 C388.32,372.63 396.86,358.41 386.32,360.22 C386.32,360.22 379.15,361.09 371.06,373.78 C370.62,374.47 370.18,375.15 369.7,375.83 C367.7,378.66 361.52,388.19 371.7,386.19" id="Path" stroke="#616670"></path><path d="M410.83,350.85 C410.83,350.85 400.39,367.85 388.32,372.63" id="Path" stroke="#616670"></path><path d="M446.52,380.31 C446.52,380.31 429.02,373.7 418.8,383.68 C411.64,390.68 408.18,394.54 406.8,396.23 C406.2346,396.818366 405.41423,397.088074 404.61,396.95 L402.34,396.4" id="Path" stroke="#616670"></path><path d="M402.14,371.07 C402.14,371.07 415.71,371.07 420.26,375.45" id="Path" stroke="#616670"></path><path d="M408.15,383.35 C408.15,383.35 409.23,380.91 405.15,379.94 C402.22,379.23 399.15,381.18 399.15,381.18" id="Path" stroke="#616670"></path><path d="M433.72,389.52 C433.72,389.52 434.8,387.09 430.72,386.12 C427.8,385.41 424.72,387.36 424.72,387.36" id="Path" stroke="#616670"></path><path d="M383.61,394.34 C383.61,394.34 383.77,403.1 395.46,405.17" id="Path" stroke="#616670"></path><path d="M421.59,244.71 L436.25,229.26 C443.73,221.38 457.94,216.96 468,219.39 L628.1,258.08 C638.16,260.51 640.25,268.87 632.77,276.75 L509,407.13 L378,544.06" id="Path" stroke="#616670"></path><line x1="394.67" y1="273.07" x2="408.44" y2="258.57" id="Path" stroke="#616670"></line><path d="M371.93,551.59 L356.4,567.94 C348.92,575.82 334.71,580.24 324.65,577.81 L164.55,539.12 C154.49,536.69 152.41,528.33 159.89,520.45 L383.89,284.45" id="Path" stroke="#616670"></path><path d="M587.38,256.35 L612.77,262.49 C622.08,264.74 624.04,272.49 617.14,279.71 L500.77,402.33 L363.26,547.22 L352.58,558.47 C345.69,565.74 332.58,569.8 323.24,567.55 L181.24,533.24 C171.93,530.99 169.97,523.24 176.87,516.02 L441.43,237.26 C448.32,230 461.43,225.93 470.77,228.18 L496.15,234.32" id="Path" stroke="#616670"></path><path d="M587.38,256.35 L579.65,264.49 C573.26,271.22 561.12,275 552.53,272.92 L492.46,258.41 C483.86,256.33 482.08,249.19 488.46,242.41 L496.18,234.27" id="Path" stroke="#616670"></path><line x1="505.01" y1="248.94" x2="559.27" y2="262.06" id="Path" stroke="#616670"></line><path d="M487.84,315.05 L467.96,310.25 C465.63,309.68 465.15,307.75 466.88,305.93 L479.59,292.54 C481.53014,290.64758 484.25797,289.796528 486.93,290.25 L506.82,295.06 C509.14,295.62 509.63,297.56 507.9,299.38 L495.19,312.77 C493.24318,314.657617 490.51333,315.50443 487.84,315.05 Z" id="Path" stroke="#35C4BA"></path><path d="M512.69,285.24 C512.18,283.39 510.48,281.91 507.69,281.24 C502.02,279.88 494.02,282.36 489.8,286.8 L486.6,290.18" id="Path" stroke="#35C4BA"></path><polyline id="Path" stroke="#35C4BA" points="391.7 323.35 401.26 313.28 413.79 316.31"></polyline><polyline id="Path" stroke="#35C4BA" points="511.82 340 524.97 343.18 515.41 353.25"></polyline><polyline id="Path" stroke="#35C4BA" points="440.11 432.58 430.56 442.65 418.03 439.63"></polyline><polyline id="Path" stroke="#35C4BA" points="320 415.94 306.85 412.76 316.41 402.69"></polyline><path d="M319.47,547.86 L214,522.39 C204.57,520.11 202.61,512.26 209.63,504.87 L209.63,504.87 C216.63,497.47 229.98,493.32 239.42,495.6 L344.85,521.08 C354.28,523.36 356.24,531.21 349.23,538.6 L349.23,538.6 C342.25,546 328.91,550.14 319.47,547.86 Z" id="Path" stroke="#35C4BA"></path><line x1="319.68" y1="531.45" x2="326.83" y2="533.18" id="Path" stroke="#35C4BA"></line><line x1="232.1" y1="510.29" x2="307.8" y2="528.58" id="Path" stroke="#35C4BA"></line><line x1="273.41" y1="453.37" x2="388.81" y2="481.26" id="Path" stroke="#616670"></line><line x1="268.44" y1="472.25" x2="362.79" y2="495.05" id="Path" stroke="#616670"></line><polyline id="Path" stroke="#616670" points="591.52 345.53 513.99 427.22 382.95 564.15"></polyline><line x1="600.62" y1="335.94" x2="595.98" y2="340.83" id="Path" stroke="#616670"></line><line x1="608.29" y1="327.86" x2="604.38" y2="331.98" id="Path" stroke="#616670"></line><path d="M637.25,265.82 L637.55,284.96 C637.66682,292.573616 634.79474,299.92972 629.55,305.45 L613.26,322.62" id="Path" stroke="#616670"></path><path d="M383,564.15 L361.37,588 C353.89,595.88 339.68,600.3 329.62,597.87 L169.52,559.18 C159.46,556.75 157.85,546.96 155.52,531.42" id="Path" stroke="#616670"></path><line x1="220.12" y1="562.15" x2="261.53" y2="571.56" id="Path" stroke="#616670"></line><line x1="541.51" y1="385.96" x2="559.27" y2="367.63" id="Path" stroke="#616670"></line><line x1="568.14" y1="358.33" x2="585.9" y2="340" id="Path" stroke="#616670"></line><path d="M315.61,591.6 L315.61,616.28 C315.61,623.89 289.69,630.07 257.72,630.07 C225.75,630.07 199.83,623.89 199.83,616.28 L199.83,591.6" id="Path" stroke="#35C4BA" fill="#FFFFFF" fill-rule="nonzero"></path><ellipse id="Oval" stroke="#35C4BA" fill="#FFFFFF" fill-rule="nonzero" cx="257.72" cy="591.6" rx="57.89" ry="13.79"></ellipse><path d="M800.2,466.71 L785.69,486.71 C781.21,492.87 756.62,482.63 730.75,463.83 C704.88,445.03 687.56,424.83 692.03,418.64 L706.54,398.64" id="Path" stroke="#35C4BA" fill-rule="nonzero"></path><ellipse id="Oval" stroke="#35C4BA" fill-rule="nonzero" transform="translate(753.307720, 432.598004) rotate(-53.990000) translate(-753.307720, -432.598004) " cx="753.30772" cy="432.598004" rx="13.79" ry="57.89"></ellipse><path d="M382.79,55.29 L398.58,78.36 C403.46,85.47 383.19,107.84 353.31,128.3 C323.43,148.76 295.25,159.6 290.37,152.48 L274.58,129.42" id="Path" stroke="#35C4BA" fill-rule="nonzero"></path><ellipse id="Oval" stroke="#35C4BA" fill-rule="nonzero" transform="translate(328.694780, 92.384684) rotate(-34.410000) translate(-328.694780, -92.384684) " cx="328.69478" cy="92.384684" rx="65.58" ry="15.62"></ellipse><circle id="Oval" stroke="#35C4BA" cx="559.27" cy="55.29" r="53.99"></circle><path d="M550.07,72.5 C509.36,50.73 479.46,27.29 483.29,20.15 C485.4,16.15 497.43,18.06 514.66,24.22" id="Path" stroke="#35C4BA"></path><path d="M563.83,79.58 C561.57,78.46 559.29,77.32 556.99,76.13" id="Path" stroke="#35C4BA"></path><path d="M609.89,75.15 C624.58,86.05 632.81,95.02 630.69,98.98 C627.39,105.15 601.41,97.83 567.77,81.5" id="Path" stroke="#35C4BA"></path></g></g></svg>