<svg xmlns="http://www.w3.org/2000/svg" xmlns:xlink="http://www.w3.org/1999/xlink" width="800px" height="642px" viewBox="0 0 800 642"><title>pay</title><g id="pay" stroke="none" stroke-width="1" fill="none" fill-rule="evenodd"><circle id="Oval" fill="#616670" fill-rule="nonzero" opacity="0.03" cx="89.6928" cy="130.719723" r="36.6112092"></circle><path d="M141.910243,565.584777 L141.910243,584.819857 C141.910243,590.762275 121.687353,595.576879 96.7976416,595.576879 C71.9079306,595.576879 51.6850405,590.762275 51.6850405,584.819857 L51.6850405,565.584777" id="Path" stroke="#35C4BA" stroke-width="2" stroke-linecap="round" stroke-linejoin="round"></path><ellipse id="Oval" stroke="#35C4BA" stroke-width="2" stroke-linecap="round" stroke-linejoin="round" cx="96.7665295" cy="565.584777" rx="45.1437133" ry="10.7492439"></ellipse><g id="Group-4" transform="translate(646.833706, 32.280000)" stroke="#35C4BA" stroke-linecap="round" stroke-linejoin="round" stroke-width="2"><path d="M79.4515753,9 L90.8852863,24.470511 C94.4165141,29.2462243 81.0305164,45.1289711 60.978743,59.9539052 C40.9269696,74.7788393 21.8241164,82.9535538 18.2928886,78.1467283 L6.85139963,62.6762173" id="Path"></path><ellipse id="Oval" transform="translate(43.143713, 35.820971) rotate(-36.480000) translate(-43.143713, -35.820971) " cx="43.1437133" cy="35.8209713" rx="45.1437133" ry="10.7492439"></ellipse></g><path d="M108.686761,81.3214243 L104.159945,99.9887075 C102.759898,105.760009 84.1470613,106.211135 62.5863491,100.984296 C41.025637,95.7574566 24.6762081,86.8516069 26.0762543,81.0803052 L30.6030705,62.3741318" id="Path" stroke="#35C4BA" stroke-width="2" stroke-linecap="round" stroke-linejoin="round"></path><ellipse id="Oval" stroke="#35C4BA" stroke-width="2" stroke-linecap="round" stroke-linejoin="round" transform="translate(69.639669, 71.848140) rotate(-76.390000) translate(-69.639669, -71.848140) " cx="69.6396685" cy="71.8481397" rx="10.7492439" ry="40.1735491"></ellipse><g id="Group" opacity="0.3" transform="translate(653.385341, 299.017138)" fill="#35C4BA" fill-rule="nonzero"><path d="M75.2447075,27.3786821 L71.1145711,44.4281341 C69.8389734,49.6938636 52.9761942,50.1294335 33.4533272,45.4003884 C13.9304601,40.6713434 -0.871139884,32.5744092 0.404457803,27.3086798 L4.53459422,10.2514497" id="Path"></path><ellipse id="Oval" transform="translate(39.864216, 18.800823) rotate(-76.390000) translate(-39.864216, -18.800823) " cx="39.8642162" cy="18.8008227" rx="9.80810173" ry="36.3778682"></ellipse></g><path d="M74.7002451,478.011884 L74.7002451,493.933521 C74.7002451,498.849239 57.9774705,502.831593 37.3656786,502.831593 C16.7538867,502.831593 0.0311121387,498.849239 0.0311121387,493.933521 L0.0311121387,478.011884" id="Path" stroke="#35C4BA" stroke-width="2" stroke-linecap="round" stroke-linejoin="round"></path><ellipse id="Oval" stroke="#35C4BA" stroke-width="2" stroke-linecap="round" stroke-linejoin="round" cx="37.3501225" cy="478.011884" rx="37.3501225" ry="8.89807168"></ellipse><path d="M414.545914,618.80209 L414.545914,618.918761 C414.545914,624.853401 394.323024,629.668005 369.433313,629.668005 C344.543602,629.668005 324.320712,624.853401 324.320712,618.918761 L324.320712,599.675903" id="Path" stroke="#35C4BA" stroke-width="2" stroke-linecap="round" stroke-linejoin="round"></path><path d="M396.881998,608.208407 C387.797036,609.752452 378.593845,610.494225 369.378867,610.425147 C344.442488,610.425147 324.266266,605.610543 324.266266,599.675903 C324.266266,593.741262 344.489156,588.926659 369.378867,588.926659 C370.506682,588.926659 371.634497,588.926659 372.738978,588.926659" id="Path" stroke="#35C4BA" stroke-width="2" stroke-linecap="round" stroke-linejoin="round"></path><path d="M457.045096,608.418414 L447.439223,625.086742 C444.475792,630.235801 424.556245,624.308939 402.956643,611.864083 C381.35704,599.419228 366.267653,585.138756 369.215528,580.005253 L378.821401,563.360259" id="Path" stroke="#35C4BA" stroke-width="2" stroke-linecap="round" stroke-linejoin="round"></path><ellipse id="Oval" stroke="#35C4BA" stroke-width="2" stroke-linecap="round" stroke-linejoin="round" transform="translate(417.945144, 585.934481) rotate(-60.040000) translate(-417.945144, -585.934481) " cx="417.945144" cy="585.934481" rx="10.7492439" ry="45.1437133"></ellipse><path d="M755.946506,565.103704 L755.946506,583.195413 C755.946506,588.780042 736.944768,593.306858 713.501771,593.306858 C690.058775,593.306858 671.057036,588.780042 671.057036,583.195413 L671.057036,565.103704" id="Path" stroke="#35C4BA" stroke-width="2" stroke-linecap="round" stroke-linejoin="round"></path><path d="M755.946506,565.103704 C755.946506,570.688333 736.944768,575.215149 713.501771,575.215149 C690.058775,575.215149 671.057036,570.688333 671.057036,565.103704 C671.057036,563.711436 672.239297,562.381392 674.386035,561.168018" id="Path" stroke="#35C4BA" stroke-width="2" stroke-linecap="round" stroke-linejoin="round"></path><path d="M760.457766,542.16628 L760.457766,560.257988 C760.457766,565.842617 741.456028,570.369434 718.013031,570.369434 C694.570035,570.369434 675.568296,565.842617 675.568296,560.257988 L675.568296,542.16628" id="Path" stroke="#35C4BA" stroke-width="2" stroke-linecap="round" stroke-linejoin="round"></path><path d="M754.165336,536.86166 C758.155468,538.417267 760.457766,540.221771 760.457766,542.16628 C760.457766,547.750909 741.456028,552.277725 718.013031,552.277725 C694.570035,552.277725 675.568296,547.750909 675.568296,542.16628 C675.568296,541.810101 675.642709,541.45785 675.786081,541.131801" id="Path" stroke="#35C4BA" stroke-width="2" stroke-linecap="round" stroke-linejoin="round"></path><path d="M754.165336,517.416573 L754.165336,535.508282 C754.165336,541.092911 735.15582,545.619727 711.712823,545.619727 C688.269827,545.619727 669.268088,541.092911 669.268088,535.508282 L669.268088,517.416573" id="Path" stroke="#35C4BA" stroke-width="2" stroke-linecap="round" stroke-linejoin="round"></path><ellipse id="Oval" stroke="#35C4BA" stroke-width="2" stroke-linecap="round" stroke-linejoin="round" cx="711.712823" cy="517.416573" rx="42.4447353" ry="10.1114451"></ellipse><g id="Group-3" transform="translate(305.000000, 223.000000) rotate(-15.000000) translate(-305.000000, -223.000000) translate(151.000000, 123.000000)"><rect id="Rectangle" stroke="#616670" stroke-width="2" fill="#FFFFFF" stroke-linecap="round" stroke-linejoin="round" x="0" y="0" width="308" height="200" rx="8"></rect><g id="Glyphs-/-TableCell-/-Visa" transform="translate(228.000000, 157.000000)" fill="#35C4BA"><path d="M38.6356297,0.334940766 C40.4634032,0.334940766 41.9306414,0.735706939 42.8635535,1.10321114 L42.8635535,1.10321114 L42.2245209,5.0727433 L41.8008379,4.86343627 C40.930264,4.49133488 39.8130364,4.134918 38.2696971,4.15979688 C36.421684,4.15979688 35.5678414,4.97457993 35.566762,5.73554889 C35.5551579,6.59495166 36.5671395,7.1574305 38.2159947,8.00655721 C40.9388996,9.31269798 42.1961854,10.8946697 42.1791841,12.9817907 C42.1414035,16.7814975 38.9200639,19.2363932 33.962434,19.2363932 C31.8456385,19.2131368 29.8060235,18.7704552 28.7057972,18.2604383 L28.7057972,18.2604383 L29.3656092,14.1616442 L29.9725282,14.4531596 C31.5242332,15.1367878 32.527849,15.41343 34.4168811,15.41343 C35.7734761,15.41343 37.2283007,14.851492 37.2409842,13.6251259 C37.2482705,12.8233231 36.630557,12.2494865 34.791989,11.3527655 C33.0030755,10.4779486 30.6301813,9.01009518 30.6598661,6.3780728 C30.6871221,2.81985329 33.9707997,0.334940766 38.6356297,0.334940766 Z M54.9671221,0.672428069 L58.7856657,18.9713791 L54.4063494,18.9713791 C54.4063494,18.9713791 54.2774849,18.3452683 54.1373871,17.6723758 L54.0669467,17.3347131 C53.9732303,16.8864505 53.8832347,16.4603093 53.8318138,16.2279426 C53.8081125,16.2279426 53.7795027,16.2279314 53.7463288,16.2279096 L53.1512217,16.2271956 C53.0870486,16.2271025 53.0196896,16.2270019 52.9494893,16.2268948 L52.4969483,16.2261792 C52.2563863,16.225788 51.9964543,16.2253515 51.7264549,16.2248904 L51.175789,16.223942 C50.3379243,16.222489 49.4652678,16.2209417 48.8089882,16.219866 L48.2341369,16.2189684 C48.1803457,16.2188908 48.1302594,16.2188213 48.0842227,16.2187608 L47.7885301,16.2184778 C47.6050241,16.7138919 46.7965184,18.9713791 46.7965184,18.9713791 L46.7965184,18.9713791 L41.8407775,18.9713791 L48.8477374,2.19030967 C49.3432036,0.996394247 50.1897598,0.672428069 51.3207504,0.672428069 L51.3207504,0.672428069 L54.9671221,0.672428069 Z M28.7004,0.653768916 L25.7489222,18.964889 L21.0303898,18.964889 L23.9821374,0.653768916 L28.7004,0.653768916 Z M8.16689045,0.656743563 C9.19155546,0.697306941 10.0205707,1.04128439 10.3058146,2.20166741 L10.3058146,2.20166741 L11.9592574,10.6153233 L12.453914,13.1529682 L17.0720578,0.669182999 L22.0720561,0.669182999 L14.6416831,18.9459594 L9.64816152,18.948934 L5.45281785,3.04499716 C4.0021098,2.19434687 2.34674394,1.51041734 0.495530911,1.03614636 L0.495530911,1.03614636 L0.558138834,0.656743563 Z M51.6529502,5.60763904 C51.4146623,6.2939714 50.9982656,7.40297415 51.0257915,7.35456852 C51.0257915,7.35456852 50.5548027,8.64101386 50.0730925,9.95397316 L49.9127568,10.39088 C49.5938166,11.2597443 49.2928406,12.0781739 49.1462045,12.4728555 L49.1462045,12.4728555 L53.0632476,12.4728555 C52.8767731,11.5574753 51.971387,7.18690655 51.971387,7.18690655 L51.971387,7.18690655 Z" id="Combined-Shape"></path></g><line x1="23" y1="101" x2="63" y2="101" id="Line" stroke="#616670" stroke-width="2" stroke-linecap="round" stroke-linejoin="round"></line><line x1="22" y1="166" x2="52" y2="166" id="Line-Copy-4" stroke="#616670" stroke-width="2" stroke-linecap="round" stroke-linejoin="round"></line><line x1="68" y1="166" x2="146" y2="166" id="Line-Copy-5" stroke="#616670" stroke-width="2" stroke-linecap="round" stroke-linejoin="round"></line><line x1="79" y1="101" x2="119" y2="101" id="Line-Copy" stroke="#616670" stroke-width="2" stroke-linecap="round" stroke-linejoin="round"></line><line x1="135" y1="101" x2="175" y2="101" id="Line-Copy-2" stroke="#616670" stroke-width="2" stroke-linecap="round" stroke-linejoin="round"></line><line x1="191" y1="101" x2="231" y2="101" id="Line-Copy-3" stroke="#616670" stroke-width="2" stroke-linecap="round" stroke-linejoin="round"></line><g id="Group-2" transform="translate(22.000000, 18.000000)" stroke="#35C4BA" stroke-linecap="round" stroke-linejoin="round" stroke-width="2"><polygon id="Rectangle" points="21 0 40 12 2 12"></polygon><line x1="5" y1="33" x2="37" y2="33" id="Line-3"></line><line x1="1.23529412" y1="39" x2="40.7647059" y2="39" id="Line-3-Copy"></line><line x1="9" y1="18.5" x2="9" y2="25.5" id="Line-2"></line><line x1="17" y1="18.5" x2="17" y2="25.5" id="Line-2-Copy"></line><line x1="25" y1="18.5" x2="25" y2="25.5" id="Line-2-Copy-2"></line><line x1="33" y1="18.5" x2="33" y2="25.5" id="Line-2-Copy-3"></line></g></g><g id="Group-3-Copy" transform="translate(481.588190, 405.340742) rotate(-345.000000) translate(-481.588190, -405.340742) translate(327.588190, 295.340742)"><polygon id="Path-2" fill="#EEF2F7" points="4.83809999 20.882629 99.174125 0.21428436 24.0686781 42.843039"></polygon><rect id="Rectangle" stroke="#616670" stroke-width="2" fill="#FFFFFF" stroke-linecap="round" stroke-linejoin="round" x="0" y="20" width="308" height="200" rx="8"></rect><line x1="23" y1="121" x2="63" y2="121" id="Line" stroke="#616670" stroke-width="2" stroke-linecap="round" stroke-linejoin="round"></line><line x1="22" y1="186" x2="52" y2="186" id="Line-Copy-4" stroke="#616670" stroke-width="2" stroke-linecap="round" stroke-linejoin="round"></line><line x1="68" y1="186" x2="146" y2="186" id="Line-Copy-5" stroke="#616670" stroke-width="2" stroke-linecap="round" stroke-linejoin="round"></line><line x1="81" y1="121" x2="121" y2="121" id="Line-Copy" stroke="#616670" stroke-width="2" stroke-linecap="round" stroke-linejoin="round"></line><line x1="135" y1="121" x2="175" y2="121" id="Line-Copy-2" stroke="#616670" stroke-width="2" stroke-linecap="round" stroke-linejoin="round"></line><line x1="191" y1="121" x2="231" y2="121" id="Line-Copy-3" stroke="#616670" stroke-width="2" stroke-linecap="round" stroke-linejoin="round"></line><g id="Group-2" transform="translate(22.000000, 38.000000)" stroke="#35C4BA" stroke-linecap="round" stroke-linejoin="round" stroke-width="2"><polygon id="Rectangle" points="21 0 40 12 2 12"></polygon><line x1="5" y1="33" x2="37" y2="33" id="Line-3"></line><line x1="1.23529412" y1="39" x2="40.7647059" y2="39" id="Line-3-Copy"></line><line x1="9" y1="18.5" x2="9" y2="25.5" id="Line-2"></line><line x1="17" y1="18.5" x2="17" y2="25.5" id="Line-2-Copy"></line><line x1="25" y1="18.5" x2="25" y2="25.5" id="Line-2-Copy-2"></line><line x1="33" y1="18.5" x2="33" y2="25.5" id="Line-2-Copy-3"></line></g><g id="mc_symbol_rgb" transform="translate(226.000000, 162.000000)"><path d="M23.0908475,18 C23.0908475,12.258 25.8249153,7.1445 30.0823729,3.8485 C26.9684746,1.438 23.04,0 18.7698305,0 C8.66084746,0 0.465762712,8.059 0.465762712,18 C0.465762712,27.941 8.66084746,36 18.7698305,36 C23.04,36 26.9684746,34.562 30.0823729,32.1515 C25.8249153,28.8555 23.0908475,23.7415 23.0908475,18" id="Fill-2" stroke="#35C4BA" stroke-width="2" stroke-linecap="round" stroke-linejoin="round"></path><path d="M59.6984746,18 C59.6984746,27.941 51.5033898,36 41.3949153,36 C37.1247458,36 33.1957627,34.562 30.0823729,32.1515 C34.3398305,28.8555 37.0733898,23.7415 37.0733898,18 C37.0733898,12.258 34.3398305,7.1445 30.0823729,3.8485 C33.1957627,1.438 37.1247458,0 41.3949153,0 C51.5033898,0 59.6984746,8.059 59.6984746,18" id="Fill-3" stroke="#35C4BA" stroke-width="2" stroke-linecap="round" stroke-linejoin="round"></path><path d="M59.5842373,29.853 L59.5842373,28.455 L59.3436308,28.455 L59.0667686,29.416 L58.7905656,28.455 L58.5499591,28.455 L58.5499591,29.853 L58.7193724,29.853 L58.7193724,28.799 L58.9790956,29.707 L59.1551008,29.707 L59.414824,28.796 L59.414824,29.853 L59.5842373,29.853 Z M58.0608358,29.853 L58.0608358,28.693 L58.3693395,28.693 L58.3693395,28.458 L57.5842373,28.458 L57.5842373,28.693 L57.8927409,28.693 L57.8927409,29.853 L58.0608358,29.853 L58.0608358,29.853 Z" id="Fill-4" fill="#F79E1B"></path></g></g><path d="M175.085646,419.004513 C179.193497,419.004513 184.357653,416.246937 187.409199,412.550613 C190.226011,409.147647 192.221253,404.512573 192.221253,399.818827 C192.221253,399.173436 192.162569,398.528046 192.045202,398 C187.467883,398.176015 181.951626,401.050935 178.665345,404.923275 C176.083267,407.856867 173.67724,412.550613 173.67724,417.244358 C173.67724,417.94842 173.794607,418.652482 173.853291,418.88717 C174.146709,418.945841 174.616178,419.004513 175.085646,419.004513 Z M160.649485,489 C166.283109,489 168.747819,485.245003 175.731166,485.245003 C182.831879,485.245003 184.416336,488.882656 190.636796,488.882656 C196.798573,488.882656 200.906423,483.250161 204.77954,477.676338 C209.122125,471.281109 210.941316,465.061896 211,464.768536 C210.647898,464.651193 198.852498,459.840103 198.852498,446.345583 C198.852498,434.66989 208.124504,429.448098 208.652657,429.037395 C202.549564,420.236622 193.218874,420.001934 190.636796,420.001934 C183.770817,420.001934 178.195876,424.167634 174.616178,424.167634 C170.801745,424.167634 165.81364,420.236622 159.827914,420.236622 C148.501983,420.236622 137,429.624113 137,447.284333 C137,458.314636 141.225218,469.931657 146.506741,477.441651 C151.025377,483.778208 154.957177,489 160.649485,489 Z" id="&#xF8FF;" stroke="#EEC836" stroke-width="2" stroke-linecap="round" stroke-linejoin="round" transform="translate(174.000000, 443.500000) rotate(-15.000000) translate(-174.000000, -443.500000) "></path><path d="M596.829052,199.002478 C606.976085,198.888593 616.726307,202.703755 624.152347,209.650768 L624.152347,209.650768 L612.474756,221.380968 C608.279894,217.338035 602.667848,215.117269 596.829052,215.231154 C586.171833,215.231154 577.158547,222.46288 573.927369,232.200086 L573.927369,232.200086 L573.912182,232.189057 C572.226765,237.300966 572.231827,242.806563 573.927369,247.859335 C577.158547,257.539598 586.171833,264.771324 596.829052,264.771324 C602.327724,264.771324 607.032772,263.347756 610.717449,260.842276 L610.717449,260.842276 L611.073305,260.601086 C615.187875,257.741665 617.998622,253.298947 618.880425,248.371819 L618.880425,248.371819 L596.829052,248.371819 L596.829052,232.598685 L635.319752,232.598685 C635.773251,235.331936 636,238.122129 636,240.912323 C636,253.439722 631.578388,263.974126 623.868911,271.091966 C617.123118,277.355665 607.826395,281 596.829052,281 C581.410097,281 567.294951,272.287763 560.379097,258.450681 L560.379097,258.450681 L560.379097,258.393739 C554.540301,246.834366 554.540301,233.168112 560.379097,221.608739 L560.379097,221.608739 L560.602253,221.168855 C567.595421,207.586072 581.574129,199.002478 596.829052,199.002478 Z" id="Combined-Shape" stroke="#FB7165" stroke-width="2" stroke-linecap="round" stroke-linejoin="round" transform="translate(596.000000, 240.000000) rotate(19.000000) translate(-596.000000, -240.000000) "></path><g id="Group-2" transform="translate(553.000000, 110.000000) rotate(-345.000000) translate(-553.000000, -110.000000) translate(511.000000, 70.000000)" stroke="#7E88C7" stroke-linecap="round" stroke-linejoin="round" stroke-width="2"><polygon id="Rectangle" points="42 0 80 24 4 24"></polygon><line x1="10" y1="66" x2="74" y2="66" id="Line-3"></line><line x1="2.47058824" y1="78" x2="81.5294118" y2="78" id="Line-3-Copy"></line><line x1="18" y1="37" x2="18" y2="51" id="Line-2"></line><line x1="34" y1="37" x2="34" y2="51" id="Line-2-Copy"></line><line x1="50" y1="37" x2="50" y2="51" id="Line-2-Copy-2"></line><line x1="66" y1="37" x2="66" y2="51" id="Line-2-Copy-3"></line></g><path d="M460,40.5 C460,48.9884728 461.976884,57.0152196 465.495369,64.1449586 M468.090228,68.8014694 C469.521878,71.0937034 471.122266,73.2697091 472.874006,75.3120985 M479.800533,82.0545667 C482.547708,84.2851814 485.52039,86.2488553 488.679079,87.9060883 C496.09734,91.7981423 504.541534,94 513.5,94" id="Shape" stroke="#35C4BA" stroke-width="2" stroke-linecap="round" stroke-linejoin="round" transform="translate(486.750000, 67.250000) rotate(-339.000000) translate(-486.750000, -67.250000) "></path><polyline id="Path" stroke="#35C4BA" stroke-width="2" stroke-linecap="round" stroke-linejoin="round" transform="translate(496.000000, 97.000000) rotate(-3.000000) translate(-496.000000, -97.000000) " points="502 91 502 103 490 103"></polyline></g></svg>