<svg xmlns="http://www.w3.org/2000/svg" xmlns:xlink="http://www.w3.org/1999/xlink" width="366px" height="268px" viewBox="0 0 366 268"><title>sale pending</title><g id="sale-pending" stroke="none" stroke-width="1" fill="none" fill-rule="evenodd"><g id="ZenGo-sale" transform="translate(40.000000, 40.000000)"><path d="M139,45.86 C150.09,22.11 154.59,4.14 154.59,4.14 L276.2,48.08 C186,275.4 139.26,157.79 139.26,157.79 L27.64,120.67 C27.64,120.67 26.46,123.99 29.85,130.67 C33.65,138.12 38.94,142.61 47.93,146.52 C48.66,146.84 49.42,147.13 50.18,147.38 L165.48,186.51" id="Path" stroke="#35C4BA" stroke-width="1.2" stroke-linecap="round" stroke-linejoin="round"></path><path d="M68.39,134.22 C80.0137933,126.171954 90.6267683,116.75424 100,106.17" id="Path" stroke="#35C4BA" stroke-width="1.2" stroke-linecap="round" stroke-linejoin="round"></path><path d="M60,6.5 C47.27,18.93 55.12,47.62 77.53,70.58 C99.94,93.54 128.44,102.08 141.17,89.65 C153.9,77.22 146,48.53 123.61,25.57" id="Path" stroke="#7E88C7" stroke-width="1.2" stroke-linecap="round" stroke-linejoin="round"></path><path d="M90,101.94 C105.37,109.5 120,110.16 128.2,102.18 L139.28,91.5" id="Path" stroke="#7E88C7" stroke-width="1.2" stroke-linecap="round" stroke-linejoin="round"></path><path d="M80,96.12 C81.91,97.41 83.83,98.6 85.74,99.69" id="Path" stroke="#7E88C7" stroke-width="1.2" stroke-linecap="round" stroke-linejoin="round"></path><path d="M58.08,8.35 L47,19 C34.27,31.43 42.12,60.12 64.53,83.08 C67.5334014,86.1627412 70.7262744,89.05503 74.09,91.74" id="Path" stroke="#7E88C7" stroke-width="1.2" stroke-linecap="round" stroke-linejoin="round"></path><path d="M102.86,9.25 C100.79,8.05 98.71,6.97 96.65,6.02" id="Path" stroke="#7E88C7" stroke-width="1.2" stroke-linecap="round" stroke-linejoin="round"></path><path d="M91.63,3.93 C78.74,-0.82 67,-0.33 60,6.5 C47.27,18.93 55.12,47.62 77.53,70.58 C99.94,93.54 128.44,102.08 141.17,89.65 C153.9,77.22 146,48.53 123.61,25.57 C119.463099,21.3052237 114.94903,17.4135539 110.12,13.94" id="Path" stroke="#7E88C7" stroke-width="1.2" stroke-linecap="round" stroke-linejoin="round"></path><path d="M84.19,121.89 C84.19,121.89 114.93,115.18 126.57,103.58 C126.57,103.58 117.9,111.5 100,106.17 L84.19,121.89 Z" id="Path" fill="#7E88C7" fill-rule="nonzero" opacity="0.3"></path><path d="M168.28,187.34 C216.85,172.82 257.16,71.44 257.16,71.44 C236.48,61.81 245.23,46.35 245.23,46.35 L174.23,20.67 C165.17,36.53 151.78,34.83 151.78,34.83 C151.78,34.83 149.78,41.7 143.35,51.83" id="Path" stroke="#35C4BA" stroke-width="1.2" stroke-linecap="round" stroke-linejoin="round"></path><path d="M81.25,138.5 C86.9990919,133.567828 92.165922,127.995033 96.65,121.89" id="Path" stroke="#35C4BA" stroke-width="1.2" stroke-linecap="round" stroke-linejoin="round"></path><ellipse id="Oval" stroke="#35C4BA" stroke-width="1.2" stroke-linecap="round" stroke-linejoin="round" cx="165.28" cy="117.12" rx="38.71" ry="21.76"></ellipse><path d="M27.64,120.67 L139.26,157.79 C139.26,157.79 150.32,174.38 157.8,183 L44.58,144.91 C44.58,144.91 29.06,139.62 27.64,120.67 Z" id="Path" stroke="#35C4BA" stroke-width="1.2" fill="#35C4BA" fill-rule="nonzero" opacity="0.3" stroke-linecap="round" stroke-linejoin="round"></path><line x1="285.05" y1="141.94" x2="245.17" y2="130.61" id="Path" stroke="#EEC836" stroke-width="1.2" stroke-linecap="round" stroke-linejoin="round"></line><line x1="244.39" y1="151.77" x2="241.66" y2="149.04" id="Path" stroke="#EEC836" stroke-width="1.2" stroke-linecap="round" stroke-linejoin="round"></line><line x1="257.13" y1="164.54" x2="248.65" y2="156.05" id="Path" stroke="#EEC836" stroke-width="1.2" stroke-linecap="round" stroke-linejoin="round"></line><line x1="265.33" y1="113.92" x2="280.08" y2="111.51" id="Path" stroke="#EEC836" stroke-width="1.2" stroke-linecap="round" stroke-linejoin="round"></line><line x1="0.95" y1="84.4" x2="41.86" y2="77.69" id="Path" stroke="#EEC836" stroke-width="1.2" stroke-linecap="round" stroke-linejoin="round"></line><line x1="33.57" y1="58.21" x2="37.2" y2="59.53" id="Path" stroke="#EEC836" stroke-width="1.2" stroke-linecap="round" stroke-linejoin="round"></line><line x1="16.61" y1="52.07" x2="27.89" y2="56.16" id="Path" stroke="#EEC836" stroke-width="1.2" stroke-linecap="round" stroke-linejoin="round"></line><line x1="30.71" y1="101.38" x2="18.39" y2="109.83" id="Path" stroke="#EEC836" stroke-width="1.2" stroke-linecap="round" stroke-linejoin="round"></line></g></g></svg>