<svg xmlns="http://www.w3.org/2000/svg" xmlns:xlink="http://www.w3.org/1999/xlink" width="900px" height="839px" viewBox="0 0 900 839"><title>support-color</title><defs><filter id="filter-1"></filter></defs><g id="support-color" stroke="none" stroke-width="1" fill="none" fill-rule="evenodd"><g id="Zengo-chat-flipped2" transform="translate(1.360319, 1.472995)"><g id="Group" transform="translate(448.666686, 418.000000) scale(-1, 1) translate(-448.666686, -418.000000) translate(0.166686, 0.000000)"><path d="M340.733224,242.101473 L57.2553191,242.101473 C25.6340796,242.101473 0,267.735553 0,299.356792 L0,299.356792 C0,314.541847 6.03223953,329.104962 16.7696947,339.842417 C27.5071499,350.579872 42.0702643,356.612111 57.2553191,356.612111 L340.733224,356.612111" id="Path" stroke="#616670" stroke-width="2" stroke-linecap="round" stroke-linejoin="round"></path><rect id="Rectangle" stroke="#616670" stroke-width="2" stroke-linecap="round" stroke-linejoin="round" transform="translate(316.568740, 777.756137) rotate(-180.000000) translate(-316.568740, -777.756137) " x="48.3584288" y="720.500818" width="536.420622" height="114.510638" rx="57.2553191"></rect><path d="M377.234043,433.590835 C377.234043,433.590835 365.833061,531.559738 409.639935,546.775777 C419.216126,550.200875 429.393251,551.62467 439.541735,550.959083 C461.332756,549.265575 481.067605,537.448659 492.849427,519.03928 C520.026187,477.176759 558.972177,387.765957 561.490998,382.743044" id="Path" stroke="#7E85CB" stroke-width="2" stroke-linecap="round" stroke-linejoin="round"></path><path d="M631.060556,402.790507 L625.242226,389.99018 C625.242226,389.99018 637.747954,388.001637 646.129296,388.767594 C646.129296,388.767594 648.07365,392.90671 631.060556,402.790507" id="Path" stroke="#7E85CB" stroke-width="2" fill="#7E85CB" fill-rule="nonzero" stroke-linecap="round" stroke-linejoin="round"></path><path d="M625.242226,389.99018 L669.579378,487.738134 C672.356321,493.866496 677.343,498.721671 683.543372,501.333879 L712.075286,511.644845" id="Path" stroke="#35C4BA" stroke-width="2" stroke-linecap="round" stroke-linejoin="round"></path><line x1="561.432079" y1="382.743044" x2="540.648118" y2="370.590835" id="Path" stroke="#7E85CB" stroke-width="2" stroke-linecap="round" stroke-linejoin="round"></line><path d="M375.937807,456.436989 C399.962357,437.376432 455.155483,421.954173 455.155483,421.954173" id="Path" stroke="#7E85CB" stroke-width="2" stroke-linecap="round" stroke-linejoin="round"></path><line x1="450.294599" y1="549.309329" x2="625.242226" y2="525.417349" id="Path" stroke="#7E85CB" stroke-width="2" stroke-linecap="round" stroke-linejoin="round"></line><line x1="528.996727" y1="452.327332" x2="607.536825" y2="452.327332" id="Path" stroke="#7E85CB" stroke-width="2" stroke-linecap="round" stroke-linejoin="round"></line><path d="M653.523732,452.327332 L672.451718,452.327332 C681.875979,452.328558 691.032285,455.46357 698.479542,461.238953 L760.139116,509.140753 C760.139116,509.140753 751.978723,509.98036 740.533552,521.440262" id="Path" stroke="#7E85CB" stroke-width="2" stroke-linecap="round" stroke-linejoin="round"></path><path d="M591.363339,428.641571 C588.417349,424.458265 586.693944,421.998363 586.693944,421.998363" id="Path" stroke="#35C4BA" stroke-width="2" stroke-linecap="round" stroke-linejoin="round"></path><path d="M631.060556,516.373159 C631.060556,516.373159 626.833061,526.242226 629.219313,542.400982 C629.935925,547.390628 634.239367,551.076592 639.279869,551.020665 L765.957447,549.309329 C767.822135,549.227014 769.501569,548.157024 770.364119,546.501777 C771.22667,544.846529 771.141543,542.857024 770.140753,541.281506 C765.250409,533.607201 727.423895,512.484452 712.148936,511.703764 C712.148936,511.703764 695.106383,530.705401 631.134206,516.373159 C631.134206,516.373159 635.715221,496.031097 625.315876,479.548282 C614.607201,462.505728 603.618658,446.302782 595.855974,435.09329" id="Path" stroke="#35C4BA" stroke-width="2" stroke-linecap="round" stroke-linejoin="round"></path><path d="M760.139116,509.140753 C760.139116,509.140753 762.805237,514.693944 750.225859,526.816694 L740.533552,521.440262 C740.533552,521.440262 750.859247,510.819967 760.139116,509.140753 Z" id="Path" stroke="#7E85CB" stroke-width="2" fill="#7E85CB" fill-rule="nonzero" stroke-linecap="round" stroke-linejoin="round"></path><path d="M854.513912,627.495908 L893.666121,611.837971 C895.247327,611.150706 896.342475,609.672917 896.53987,607.960147 C896.737263,606.247377 896.006984,604.559211 894.623568,603.530278 C887.847791,598.536825 848.194763,592.851064 834.790507,597.225859 C834.790507,597.225859 826.379705,619.320786 766.428805,628.158756" id="Path" stroke="#35C4BA" stroke-width="2" stroke-linecap="round" stroke-linejoin="round"></path><line x1="843.805237" y1="631.767594" x2="849.741408" y2="629.381342" id="Path" stroke="#35C4BA" stroke-width="2" stroke-linecap="round" stroke-linejoin="round"></line><path d="M704.459902,551.135843 C704.459902,551.135843 731.97545,571.757774 751.492635,591.643208 C761.06472,601.363103 766.429637,614.457947 766.428805,628.099836 L766.428805,628.099836 C766.428805,628.099836 766.060556,638.013093 773.484452,651.166939 C775.756508,655.232951 780.690619,656.98478 785.018003,655.261866 L837.942717,634.183306" id="Path" stroke="#35C4BA" stroke-width="2" stroke-linecap="round" stroke-linejoin="round"></path><path d="M765.957447,549.309329 L787.124386,578.062193 C792.777145,585.73505 801.171471,590.932038 810.559738,592.571195 L835.364975,596.9018" id="Path" stroke="#35C4BA" stroke-width="2" stroke-linecap="round" stroke-linejoin="round"></path><path d="M473.273322,380.666121 C473.641571,382.551555 474.05401,384.422259 474.540098,386.263502" id="Path" stroke="#7E85CB" stroke-width="2" stroke-linecap="round" stroke-linejoin="round"></path><path d="M471.785597,369.721768 C471.932897,371.474632 472.109656,373.212766 472.345336,374.96563" id="Path" stroke="#7E85CB" stroke-width="2" stroke-linecap="round" stroke-linejoin="round"></path><line x1="599.022913" y1="237.711948" x2="572.199673" y2="300.623568" id="Path" stroke="#35C4BA" stroke-width="2" stroke-linecap="round" stroke-linejoin="round"></line><path d="M322.585925,468.633388 C341.323624,404.401407 355.376898,356.227421 364.745748,324.11143" id="Path" stroke="#36C0B6" stroke-width="2" stroke-linecap="round" stroke-linejoin="round"></path><line x1="316.561375" y1="488.842881" x2="319.949264" y2="477.250409" id="Path" stroke="#35C4BA" stroke-width="2" stroke-linecap="round" stroke-linejoin="round"></line><path d="M430.350245,305.749591 C419.892232,330.729482 412.048722,349.464401 406.819715,361.954346" id="Path" stroke="#7E85CB" stroke-width="2" stroke-linecap="round" stroke-linejoin="round"></path><path d="M406.383267,362.996843 C395.336564,389.382872 370.625066,448.408474 332.248773,540.07365 C329.919122,545.663525 324.458523,549.305862 318.402619,549.30933 L236.165303,549.30933 C234.649127,549.30933 233.307087,548.328859 232.848906,546.883571 C232.390726,545.438282 232.922106,543.86275 234.162029,542.99018 C238.42468,540.043564 243.308663,538.118196 248.435352,537.363339 C262.355155,535.315876 301.006547,533.047463 305.88216,525.417349 L312.952537,501.216039" id="Path" stroke="#35C4BA" stroke-width="2" stroke-linecap="round" stroke-linejoin="round"></path><path d="M405.972177,363.07856 C405.972177,363.07856 399.932897,334.428805 364.846154,323.764321" id="Path" stroke="#7E85CB" stroke-width="2" stroke-linecap="round" stroke-linejoin="round"></path><polyline id="Path" stroke="#616670" stroke-width="2" stroke-linecap="round" stroke-linejoin="round" points="611.425532 225.250409 607.905074 239.96563 599.037643 237.711948 602.469722 222.805237"></polyline><polyline id="Path" stroke="#616670" stroke-width="2" stroke-linecap="round" stroke-linejoin="round" points="610.733224 191.695581 618.687398 158.582651 627.569558 160.836334 621.250409 187.350245"></polyline><line x1="438.378069" y1="318.00491" x2="414.04419" y2="345.535188" id="Path" stroke="#7E85CB" stroke-width="2" stroke-linecap="round" stroke-linejoin="round"></line><path d="M627.628478,194.184943 C627.540449,191.765208 626.220302,189.558807 624.129671,188.337282 C622.039039,187.115756 619.468721,187.049014 617.317512,188.160393 C611.89689,191.003273 605.680851,194.656301 605.680851,196.541735 C605.680851,199.885434 608.626841,204.363339 607.256956,208.325696 C605.88707,212.288052 600.319149,221.729951 603.456628,224.410802 C606.594108,227.091653 622.900164,225.530278 624.240589,212.788871 C625.094926,204.201309 627.702128,199.988543 627.628478,194.184943 Z" id="Path" stroke="#35C4BA" stroke-width="2" stroke-linecap="round" stroke-linejoin="round"></path><path d="M607.536825,176.126023 L595.090016,187.600655 C591.260192,191.119263 588.74091,195.835774 587.94599,200.97545 C586.193126,212.243863 582.05401,233.013093 574.129296,244.045827 C565.291326,256.271686 522.810147,302.96563 504.662848,322.821604 C502.584938,325.083958 499.633456,326.341986 496.562401,326.274303 C493.491347,326.206622 490.598155,324.819787 488.621931,322.468085 L478.031097,309.829787" id="Path" stroke="#35C4BA" stroke-width="2" stroke-linecap="round" stroke-linejoin="round"></path><path d="M657.220949,219.476268 L676.782324,225.972177 C679.291973,226.802128 682.055013,226.159693 683.94108,224.307692 C693.803653,214.627083 707.204728,209.414666 721.016367,209.88707 C746.749591,210.711948 769.183306,233.130933 770.022913,258.864157 C770.758945,279.172477 759.297833,297.958161 740.902671,306.594573 C722.507509,315.230985 700.732849,312.049284 685.577905,298.510552 C670.422961,284.971818 664.816169,263.692181 671.332242,244.443535 C672.165286,241.972498 671.558164,239.243287 669.756137,237.358429 L655.364975,222.422259 C654.800617,221.82616 654.711922,220.923405 655.149479,220.228869 C655.587037,219.534334 656.439612,219.224579 657.220949,219.476268 L657.220949,219.476268 Z" id="Path" stroke="#616670" stroke-width="2" stroke-linecap="round" stroke-linejoin="round"></path><path d="M344.283142,138.932897 L314.661211,129.09329 C310.862806,127.840823 306.682928,128.818972 303.834697,131.626841 C288.893886,146.280948 268.599685,154.17077 247.684124,153.456628 C208.723404,152.204583 174.756137,118.252046 173.504092,79.2913257 C172.512815,48.6219255 189.886163,20.3101797 217.678798,7.30386848 C245.471434,-5.70244261 278.340138,-0.902815101 301.253101,19.5077425 C324.166064,39.9183001 332.718197,72.0157945 322.998363,101.121113 C321.747795,104.8689 322.6717,109.000964 325.399345,111.859247 L347.096563,134.469722 C347.977849,135.366354 348.126833,136.751328 347.456408,137.814881 C346.785983,138.878433 345.472178,139.341318 344.283142,138.932897 Z" id="Path" stroke="#616670" stroke-width="2" stroke-linecap="round" stroke-linejoin="round"></path><path d="M701.543374,279.765957 C691.591641,268.17531 691.591641,251.05546 701.543374,239.464812 C706.324751,234.393642 712.985996,231.519014 719.955812,231.519014 C726.925629,231.519014 733.586873,234.393642 738.368251,239.464812 C743.44196,244.921842 746.143656,252.168743 745.880526,259.615385 C746.072043,263.849533 745.195747,268.063861 743.332244,271.870704 C741.62357,274.934534 739.394438,276.466448 736.644847,276.466448 C733.512561,276.612248 730.715713,274.519243 729.972179,271.472995 C729.72177,270.589198 729.397711,270.382979 728.970542,270.839607 C725.641573,274.590835 722.130936,276.466448 718.438627,276.466448 C714.809732,276.501107 711.34601,274.952112 708.952539,272.224223 C706.330608,269.396072 705.019642,265.389525 705.019642,260.234043 C705.019642,255.07856 706.330608,251.086743 708.952539,248.258592 C711.34601,245.530703 714.809732,243.981709 718.438627,244.016367 C722.140755,244.016367 725.651394,245.88707 728.970542,249.628478 C729.309331,249.967267 729.55974,250.040917 729.72177,249.878887 C729.913261,249.631857 730.002867,249.320868 729.972179,249.00982 L729.972179,245.577741 C729.926637,245.215547 730.094295,244.859614 730.402553,244.664072 C730.710809,244.46853 731.104252,244.46853 731.412509,244.664072 C731.720767,244.859614 731.888425,245.215547 731.842883,245.577741 L731.842883,268.968903 C731.735056,270.474172 732.191943,271.965615 733.124388,273.152209 C734.014455,274.150723 735.308905,274.692335 736.644847,274.625205 C738.810149,274.625205 740.577744,273.240589 741.947629,270.500818 C743.463007,267.089611 744.1688,263.374112 744.009822,259.644845 C744.009822,251.95581 741.71195,245.651391 737.116205,240.775777 C732.651663,236.091951 726.463368,233.441364 719.992637,233.441364 C713.521907,233.441364 707.333611,236.091951 702.869069,240.775777 C698.273325,245.651391 695.975452,251.95581 695.975452,259.644845 C695.975452,267.333879 698.273325,273.638298 702.869069,278.513912 C707.243785,283.324619 713.484202,286.009825 719.985272,285.878887 C726.986908,285.878887 732.166942,283.988544 735.52537,280.207856 C735.669226,279.985487 735.916009,279.851214 736.180853,279.851214 C736.445698,279.851214 736.69248,279.985487 736.836336,280.207856 C737.030519,280.37018 737.142737,280.610246 737.142737,280.863339 C737.142737,281.116432 737.030519,281.356498 736.836336,281.518822 C733.006549,285.672668 727.389528,287.749591 719.985272,287.749591 C712.974103,287.873398 706.25112,284.96297 701.543374,279.765957 L701.543374,279.765957 Z M710.189855,249.540098 C707.950902,251.97054 706.846156,255.535188 706.846156,260.234043 C706.846156,264.932897 707.950902,268.512275 710.189855,270.942717 C712.254876,273.307093 715.255592,274.643141 718.394437,274.595745 C721.757813,274.467051 724.889213,272.847361 726.937809,270.176759 C728.092998,268.826883 729.082063,267.343285 729.883799,265.757774 L729.883799,254.518822 C729.082063,252.93331 728.092998,251.449713 726.937809,250.099836 C724.889213,247.429234 721.757813,245.809545 718.394437,245.680851 C715.222119,245.684805 712.215762,247.098927 710.189855,249.540098 L710.189855,249.540098 Z" id="Shape" stroke="#35C4BA" stroke-width="1.47299509" fill="#EEC836" fill-rule="nonzero" transform="translate(719.992960, 259.636200) scale(-1, 1) translate(-719.992960, -259.636200) "></path><path d="M478.075286,121.919804 C482.515016,128.444171 485.15228,136.025669 485.720131,143.89689 C485.720131,144.795417 485.793781,145.708674 485.89689,146.607201 L490.168576,174.505728 C490.209489,174.908703 490.082658,175.310742 489.81791,175.617292 C489.553165,175.92384 489.173868,176.107842 488.769231,176.126023 L486.279869,176.126023 C485.637564,176.147238 485.08315,176.582423 484.909984,177.201309 C483.613748,182.577741 477.456628,206.322422 469.708674,209.430442 C460.959083,212.93617 438.495908,198.05892 437.612111,197.764321" id="Path" stroke="#35C4BA" stroke-width="2" stroke-linecap="round" stroke-linejoin="round"></path><path d="M478.075286,158.582651 C478.216183,156.793488 477.341424,155.076542 475.811203,154.138789 C474.280984,153.201034 472.354041,153.201034 470.823821,154.138789 C469.2936,155.076542 468.418842,156.793488 468.559738,158.582651" id="Path" stroke="#35C4BA" stroke-width="2" stroke-linecap="round" stroke-linejoin="round"></path><line x1="490.492635" y1="156.358429" x2="487.502455" y2="157.065466" id="Path" stroke="#35C4BA" stroke-width="2" stroke-linecap="round" stroke-linejoin="round"></line><path d="M481.374795,147.10802 C481.374795,147.10802 476.95581,141.12766 466.188216,143.86743" id="Path" stroke="#35C4BA" stroke-width="2" stroke-linecap="round" stroke-linejoin="round"></path><line x1="485.89689" y1="146.607201" x2="487.900164" y2="146.180033" id="Path" stroke="#35C4BA" stroke-width="2" stroke-linecap="round" stroke-linejoin="round"></line><path d="M466.188216,187.350245 C466.188216,187.350245 459.1473,181.458265 458.734861,172.870704" id="Path" stroke="#35C4BA" stroke-width="2" stroke-linecap="round" stroke-linejoin="round"></path><path d="M431.057283,172.193126 L428.509002,168.657938 C426.748823,166.214936 425.349834,163.531059 424.355155,160.689034 C422.528642,155.430442 420.981997,147.667758 426.06383,144.324059 C430.085106,141.687398 433.428805,143.160393 435.785597,145.296236 C438.181184,147.548398 439.526872,150.699018 439.497545,153.986907 L439.497545,167.538462 C439.497545,167.538462 453.829787,125.646481 485.042553,118.428805" id="Path" stroke="#35C4BA" stroke-width="2" stroke-linecap="round" stroke-linejoin="round"></path><path d="M383.847791,158.582651 C383.656301,161.720131 383.494272,164.769231 383.464812,165.947627 C382.448445,203.567921 364.860884,234.368249 365.538462,248.243863 C366.216039,262.119476 378.13257,278.278232 378.13257,278.278232" id="Path" stroke="#35C4BA" stroke-width="2" stroke-linecap="round" stroke-linejoin="round"></path><path d="M384.893617,143.469722 C384.510638,146.106383 384.201309,148.772504 383.93617,151.453355" id="Path" stroke="#35C4BA" stroke-width="2" stroke-linecap="round" stroke-linejoin="round"></path><rect id="Rectangle" stroke="#616670" stroke-width="2" stroke-linecap="round" stroke-linejoin="round" transform="translate(451.141571, 608.391162) rotate(180.000000) translate(-451.141571, -608.391162) " x="182.93126" y="551.135843" width="536.420622" height="114.510638" rx="57.2553191"></rect><path d="M485.89689,137.415712 C485.89689,137.415712 491.98036,123.834697 490.139116,111.947627 C489.944507,110.763148 489.333345,109.687086 488.415712,108.913257 C482.096563,103.595745 454.787234,82.3256956 426.211129,85.8756137 C402.245499,88.8216039 390.962357,110.430442 386.263502,136.590835" id="Path" stroke="#35C4BA" stroke-width="2" stroke-linecap="round" stroke-linejoin="round"></path><path d="M457.291326,207.883797 C457.291326,207.883797 456.451718,239.567921 463.905074,260.91162" id="Path" stroke="#35C4BA" stroke-width="2" stroke-linecap="round" stroke-linejoin="round"></path><path d="M437.612111,184.860884 C435.887838,199.659112 436.962158,214.649624 440.779051,229.050736" id="Path" stroke="#35C4BA" stroke-width="2" stroke-linecap="round" stroke-linejoin="round"></path><path d="M429.643208,151.453355 C434.445172,153.456628 434.533552,160.821604 434.533552,160.821604 C434.533552,160.821604 432.603928,157.772504 430.291326,157.698854" id="Path" stroke="#35C4BA" stroke-width="2" stroke-linecap="round" stroke-linejoin="round"></path><path d="M271.959083,39.1816694 C265.654664,40.1243863 257.803601,43.9541735 251.734861,55.3846154 C245.666121,43.8805237 237.829787,40.0507365 231.510638,39.1816694 C223.67775,38.0153187 215.909543,41.6613827 211.801964,48.4320786 C197.646481,72.1767594 242.160393,111.947627 242.160393,111.947627 L251.734861,121.993453 L261.309329,111.947627 C261.309329,111.947627 305.837971,72.1767594 291.653028,48.4320786 C287.547661,41.6668509 279.787021,38.0216139 271.959083,39.1816694 Z" id="Path" stroke="#FB7165" stroke-width="2" fill="#FB7165" fill-rule="nonzero" stroke-linecap="round" stroke-linejoin="round"></path><line x1="87.5842881" y1="285.03928" x2="311.685761" y2="285.03928" id="Path" stroke="#35C4BA" stroke-width="2" stroke-linecap="round" stroke-linejoin="round"></line><line x1="87.5842881" y1="318.00491" x2="264.947627" y2="318.00491" id="Path" stroke="#35C4BA" stroke-width="2" stroke-linecap="round" stroke-linejoin="round"></line><line x1="267.819967" y1="591.908347" x2="634.463175" y2="591.908347" id="Path" stroke="#7E85CB" stroke-width="2" stroke-linecap="round" stroke-linejoin="round"></line><line x1="267.819967" y1="624.873977" x2="510.06874" y2="624.873977" id="Path" stroke="#7E85CB" stroke-width="2" stroke-linecap="round" stroke-linejoin="round"></line><line x1="541.929624" y1="624.873977" x2="606.608838" y2="624.873977" id="Path" stroke="#7E85CB" stroke-width="2" stroke-linecap="round" stroke-linejoin="round"></line><circle id="Oval" stroke="#616670" stroke-width="2" stroke-linecap="round" stroke-linejoin="round" cx="82.6497545" cy="609.319149" r="56.4746318"></circle><line x1="138.09329" y1="761.273322" x2="279.780687" y2="761.273322" id="Path" stroke="#35C4BA" stroke-width="2" stroke-linecap="round" stroke-linejoin="round"></line><line x1="302.847791" y1="761.273322" x2="495.02946" y2="761.273322" id="Path" stroke="#35C4BA" stroke-width="2" stroke-linecap="round" stroke-linejoin="round"></line><line x1="307.296236" y1="794.238953" x2="380.342062" y2="794.238953" id="Path" stroke="#35C4BA" stroke-width="2" stroke-linecap="round" stroke-linejoin="round"></line><line x1="138.09329" y1="794.238953" x2="272.680851" y2="794.238953" id="Path" stroke="#35C4BA" stroke-width="2" stroke-linecap="round" stroke-linejoin="round"></line><line x1="412.202946" y1="794.238953" x2="476.88216" y2="794.238953" id="Path" stroke="#35C4BA" stroke-width="2" stroke-linecap="round" stroke-linejoin="round"></line><path d="M436.978723,205.011457 C436.978723,205.011457 447.805237,212.538462 457.394435,218.430442 L456.436989,207.883797 L436.905074,197.263502 L436.978723,205.011457 Z" id="Path" stroke="#35C4BA" stroke-width="2" fill="#35C4BA" fill-rule="nonzero" stroke-linecap="round" stroke-linejoin="round"></path><path d="M534.432079,452.327332 L508.315876,541.384615 L455.155483,548.646481 C470.903245,543.705459 484.299762,533.174759 492.819967,519.03928 C507.01964,495.353519 525.638298,459.206219 525.638298,459.206219 L529.026187,452.327332 L534.432079,452.327332 Z" id="Path" stroke="#7E85CB" stroke-width="2" fill="#7E85CB" fill-rule="nonzero" stroke-linecap="round" stroke-linejoin="round"></path><path d="M418.065466,340.998363 C418.065466,340.998363 422.484452,383.788871 408.06383,395.690671 C390.09329,410.553191 393.0982,434.592471 376.217676,447.510638 L379.369885,427.522095 L411.289689,351.279869 L418.065466,340.998363 Z" id="Path" stroke="#7E85CB" stroke-width="2" fill="#7E85CB" fill-rule="nonzero" stroke-linecap="round" stroke-linejoin="round"></path><line x1="473.273322" y1="335.238953" x2="488.666121" y2="322.468085" id="Path" stroke="#7E85CB" stroke-width="2" stroke-linecap="round" stroke-linejoin="round"></line><line x1="515.268412" y1="311.258592" x2="487.075286" y2="343.428805" id="Path" stroke="#35C4BA" stroke-width="2" fill="#35C4BA" fill-rule="nonzero" stroke-linecap="round" stroke-linejoin="round"></line><polygon id="Path" stroke="#35C4BA" stroke-width="2" fill="#35C4BA" fill-rule="nonzero" stroke-linecap="round" stroke-linejoin="round" points="710.602291 555.878887 777.270049 564.761047 765.883797 549.309329 702.883797 550.163666"></polygon><path d="M340.733224,402.790507 L101.636661,402.790507 C79.4238953,402.790507 61.4238953,422.837971 61.4238953,447.540098 L61.4238953,447.540098 C61.4238953,472.242226 79.4238953,492.289689 101.636661,492.289689 L316.561375,492.289689" id="Path" fill="#616670" fill-rule="nonzero" opacity="0.04"></path><path d="M576.486088,688.256956 L815.538462,688.256956 C837.751227,688.256956 855.765957,708.289689 855.765957,733.006547 L855.765957,733.006547 C855.765957,757.723404 837.751227,777.756137 815.538462,777.756137 L555.687398,777.756137 C530.972881,777.756137 510.937807,757.721064 510.937807,733.006547 L510.937807,733.006547 C510.937807,708.29203 530.972881,688.256956 555.687398,688.256956 L576.486088,688.256956 Z" id="Path" fill="#616670" fill-rule="nonzero" opacity="0.04"></path><path d="M365.085496,322.94679 C368.43968,311.448798 375.877085,285.953714 387.397709,246.461538 C391.631477,231.964265 404.921712,221.998089 420.02455,221.99509 C431.511524,221.99509 442.221517,227.796433 448.497545,237.417349 L473.626841,275.92144 C479.388301,284.757645 481.312852,295.555329 478.959083,305.837971 L475.409165,321.348609 C472.418644,335.005419 471.058895,348.968796 471.358429,362.94599" id="Path" stroke="#7E85CB" stroke-width="2" stroke-linecap="round" stroke-linejoin="round"></path><path d="M427.168576,456.436989 L545.450082,310.801964 C554.452104,299.698938 570.461662,297.348735 582.274959,305.396072 C600.363339,317.651391 625.816694,341.97054 646.173486,388.797054 C621.678571,387.289466 597.674813,396.127893 580.006547,413.160393 L545.302782,356.405892" id="Path" stroke="#7E85CB" stroke-width="2" stroke-linecap="round" stroke-linejoin="round"></path></g></g><g id="Glyphs-/-Circle-Button-/-Support" transform="translate(781.690141, 576.760563)"><rect id="Bounds" x="0" y="0" width="71.8309859" height="71.8309859"></rect><g filter="url(#filter-1)" id="Group"><g transform="translate(3.591549, 3.591549)"><path d="M30.9185548,-2.8421709e-14 C45.3622043,-2.8421709e-14 57.4926515,9.90399662 60.889203,23.2912965 C63.1238843,24.4669455 64.6478873,26.8120808 64.6478873,29.513166 L64.6478873,35.1347214 C64.6478873,38.2292312 62.6475971,40.8565482 59.8694694,41.7942198 C56.0449392,51.9727343 47.005394,59.599698 36.0057792,61.4205943 C35.1069056,63.3280135 33.1668667,64.6478873 30.9185548,64.6478873 C27.8138555,64.6478873 25.2969994,62.1310312 25.2969994,59.0263319 C25.2969994,55.9216326 27.8138555,53.4047765 30.9185548,53.4047765 C32.8214779,53.4047765 34.5035675,54.350277 35.5206629,55.7971172 C43.4592118,54.3391734 50.1015443,49.1734115 53.5861042,42.161489 L53.3500402,42.1616656 C51.8279206,42.1616656 50.5939988,40.9277439 50.5939988,39.4056242 L50.5939988,25.2422631 C50.5939988,23.7201435 51.8279206,22.4862217 53.3500402,22.4862217 L54.7759986,22.4859155 C51.3031703,12.6607852 41.9329127,5.62155542 30.9185548,5.62155542 C16.9474078,5.62155542 5.62155542,16.9474078 5.62155542,30.9185548 C5.62155542,32.4709045 4.36312737,33.7293325 2.81077771,33.7293325 C1.25842805,33.7293325 -1.97530877e-11,32.4709045 -1.97530877e-11,30.9185548 C-1.97530877e-11,13.8427085 13.8427085,-2.8421709e-14 30.9185548,-2.8421709e-14 Z M37.3647182,36.5401102 C37.5548217,36.5401102 37.7428691,36.5794434 37.9170355,36.6556365 C38.6143053,36.9606729 38.9322732,37.7732026 38.6272147,38.4704627 C36.7309223,42.8051165 33.692906,44.9724434 29.513166,44.9724434 C25.3334165,44.9724434 22.295396,42.8051068 20.3991045,38.4704336 C20.3229138,38.2962716 20.2835818,38.1082293 20.2835818,37.9181309 C20.2835818,37.1570749 20.9005396,36.5401171 21.6615956,36.5401102 L21.6615956,36.5401102 Z M18.2700551,22.4862217 C20.5985796,22.4862217 22.4862217,24.3738637 22.4862217,26.7023882 C22.4862217,29.0309127 20.5985796,30.9185548 18.2700551,30.9185548 C15.9415306,30.9185548 14.0538885,29.0309127 14.0538885,26.7023882 C14.0538885,24.3738637 15.9415306,22.4862217 18.2700551,22.4862217 Z M40.7562768,22.4862217 C43.0848013,22.4862217 44.9724434,24.3738637 44.9724434,26.7023882 C44.9724434,29.0309127 43.0848013,30.9185548 40.7562768,30.9185548 C38.4277523,30.9185548 36.5401102,29.0309127 36.5401102,26.7023882 C36.5401102,24.3738637 38.4277523,22.4862217 40.7562768,22.4862217 Z" id="Combined-Shape" fill="#35C4BA"></path></g></g></g></g></svg>